<?xml version="1.0" encoding="UTF-8"?>
<svg viewBox="0 0 39 40" version="1.1" xmlns="http://www.w3.org/2000/svg" xmlns:xlink="http://www.w3.org/1999/xlink">
    <title>np_agreement-paper_2288977_000000</title>
    <g id="Page-1" stroke="none" stroke-width="1" fill="none" fill-rule="evenodd">
        <g id="My-****---Tax-exemption-order-Download---Mobile" transform="translate(-25.000000, -172.000000)">
            <g id="np_agreement-paper_2288977_000000" transform="translate(25.000000, 172.000000)">
                <g id="np_print_988467_000000" fill="#4DA8CF" fill-rule="nonzero">
                    <path d="M4.11652745,0.00128678042 C3.91576506,0.0400884249 3.7689853,0.215537123 3.7656122,0.419668566 L3.75211546,8.92248208 L3.71162524,8.92248208 C1.6770078,8.92248208 0,10.5723855 0,12.6069194 L0,23.4172569 C0,25.4079553 1.82881914,27.0392879 3.81959916,27.1016943 L3.81959916,36.7109792 C3.81959916,36.9505376 4.01361535,37.1428571 4.25149486,37.1428571 L32.8913623,37.1158648 C33.1292418,37.1158648 33.323258,36.9235452 33.323258,36.6839868 L33.323258,27.0880901 C35.2549979,26.9295089 37.1428571,25.3436918 37.1428571,23.4171274 L37.1428571,12.6067899 C37.1428571,10.5722559 35.4793677,8.92235251 33.4447502,8.92235251 L33.2692926,8.92235251 L33.2827894,6.0071762 C33.2827894,5.88402188 33.2288024,5.76593349 33.1343252,5.68326772 L26.953034,0.190211799 C26.8754267,0.121042223 26.7742033,0.0839309491 26.6696024,0.0822423062 L4.19763746,0.00126518652 C4.17064398,-0.00042172884 4.1436505,-0.00042172884 4.11665702,0.00126518652 L4.11652745,0.00128678042 Z M4.62940359,0.865042724 L26.507512,0.946019844 L32.4193003,6.20974857 L32.4058035,8.92246048 L4.61590685,8.92246048 L4.62940359,0.865042724 Z M3.71162524,9.78587092 L33.4450526,9.78587092 C35.0123589,9.78587092 36.2793681,11.0444497 36.2793681,12.6065955 L36.2793681,23.416933 C36.2793681,24.8728369 34.796411,26.0858093 33.3235603,26.2376144 L33.3235603,22.7960653 C33.3235603,22.5581955 33.1295441,22.3641873 32.8916646,22.3641873 L4.25179718,22.3641873 C4.01391767,22.3641873 3.81990149,22.5581955 3.81990149,22.7960653 L3.81990149,26.251089 C2.29816019,26.1886697 0.86409372,24.9335157 0.86409372,23.4168898 L0.86409372,12.6065523 C0.86409372,11.0443633 2.14457808,9.78587092 3.71192756,9.78587092 L3.71162524,9.78587092 Z M4.68339055,23.228116 L32.4594666,23.228116 L32.4594666,36.2518281 L4.68339055,36.2788205 L4.68339055,23.228116 Z" id="Shape"></path>
                    <path d="M4.48389761,11.4285714 C3.98236168,11.4285714 3.57142857,11.8540714 3.57142857,12.3772321 L3.57142857,14.0513393 C3.57142857,14.5745089 3.98237457,15 4.48389761,15 L11.9446738,15 C12.4462097,15 12.8571429,14.5745 12.8571429,14.0513393 L12.8571429,12.3772321 C12.8571429,11.8540625 12.4461969,11.4285714 11.9446738,11.4285714 L4.48389761,11.4285714 Z M4.48389761,12.3214286 L11.9446738,12.3214286 C11.9782205,12.3214286 11.9983485,12.3458429 11.9983485,12.3772321 L11.9983485,14.0513393 C11.9983485,14.0827286 11.9782205,14.1071429 11.9446738,14.1071429 L4.48389761,14.1071429 C4.45035095,14.1071429 4.43022296,14.0827286 4.43022296,14.0513393 L4.43022296,12.3772321 C4.43022296,12.3458429 4.45035095,12.3214286 4.48389761,12.3214286 Z" id="Shape"></path>
                    <path d="M26.7787771,11.4285714 C25.7990711,11.4285714 25,12.2307589 25,13.2142857 C25,14.1978125 25.7990711,15 26.7787771,15 C27.7567487,15 28.5714286,14.1995536 28.5714286,13.2142857 C28.5714286,12.2290179 27.7567487,11.4285714 26.7787771,11.4285714 Z M26.7787771,12.3214286 C27.2755895,12.3214286 27.68204,12.7155402 27.68204,13.2142857 C27.68204,13.7130313 27.2755628,14.1071429 26.7787771,14.1071429 C26.2750274,14.1071429 25.8893885,13.7147723 25.8893885,13.2142857 C25.8893885,12.7137991 26.2750229,12.3214286 26.7787771,12.3214286 Z" id="Shape"></path>
                    <path d="M32.5069372,11.4285714 C31.5272313,11.4285714 30.7142857,12.2307589 30.7142857,13.2142857 C30.7142857,14.1978125 31.5272313,15 32.5069372,15 C33.4849089,15 34.2857143,14.1995536 34.2857143,13.2142857 C34.2857143,12.2290179 33.4849089,11.4285714 32.5069372,11.4285714 Z M32.5069372,12.3214286 C33.0037497,12.3214286 33.3963258,12.7155402 33.3963258,13.2142857 C33.3963258,13.7130313 33.0037452,14.1071429 32.5069372,14.1071429 C32.0031876,14.1071429 31.6036742,13.7147723 31.6036742,13.2142857 C31.6036742,12.7137991 32.0032054,12.3214286 32.5069372,12.3214286 Z" id="Shape"></path>
                    <path d="M7.58688202,26.4286089 C7.46904462,26.4272141 7.35633115,26.4648765 7.27435692,26.5318336 C7.19067326,26.5987907 7.14285714,26.6908559 7.14285714,26.7857136 C7.14285714,26.8819641 7.19067763,26.9726365 7.27435692,27.0409864 C7.35633115,27.1079435 7.46904462,27.1442111 7.58688202,27.1428184 L29.5559751,27.1428184 C29.6738125,27.1442132 29.786526,27.1079449 29.8685002,27.0409864 C29.9521839,26.972633 30,26.8819641 30,26.7857136 C30,26.6908595 29.9521795,26.5987907 29.8685002,26.5318336 C29.786526,26.4648765 29.6738125,26.4272126 29.5559751,26.4286089 L7.58688202,26.4286089 Z" id="Path"></path>
                    <path d="M9.67405112,30.7163686 C9.55894922,30.7274594 9.45400031,30.7745943 9.38121337,30.8480702 C9.30842643,30.921546 9.27626446,31.0158193 9.28811611,31.1100891 C9.29996777,31.2043588 9.35751872,31.2903131 9.44892164,31.3499264 C9.53863457,31.4095398 9.6537408,31.4372649 9.7688427,31.4261741 L28.1313269,31.4261741 C28.2481232,31.4275604 28.3598408,31.3915156 28.4410907,31.3249696 C28.5240349,31.2570373 28.5714286,31.166927 28.5714286,31.0712696 C28.5714286,30.9769999 28.5240306,30.8854984 28.4410907,30.8189538 C28.3598408,30.7524092 28.2481232,30.7149774 28.1313269,30.7163651 L9.7688427,30.7163651 C9.73668116,30.7135926 9.70621309,30.7135926 9.67405112,30.7163651 L9.67405112,30.7163686 Z" id="Path"></path>
                </g>
                <circle id="Oval" fill="#B3DAEB" cx="31.4285714" cy="32.8571429" r="7.14285714"></circle>
                <path d="M35.9996174,29.2857143 C35.5666615,29.2857143 35.1644324,29.463281 34.8057879,29.643607 C34.4456984,29.8253127 34.1220606,30.048496 33.8255648,30.2896146 C33.2318599,30.7732668 32.7338837,31.3246275 32.2780838,31.8953208 C31.8236922,32.4681013 31.4157567,33.0650609 31.0356583,33.6757638 C30.8506205,33.9749334 30.6720024,34.2775521 30.5005356,34.5843274 C30.2733398,34.4233411 29.2488188,33.2812398 27.6614113,33.2342613 C26.928393,33.2128433 27.0655665,33.7524576 27.4999472,33.9493747 C29.2481952,34.7418717 29.5368812,35.9730234 30.0791735,36.7511049 C30.5757048,37.4634413 31.6159367,37.1359537 31.8960083,36.317898 C31.9417327,36.1845487 31.9860288,36.0145895 32.0353253,35.8612018 C32.0860502,35.7043615 32.1396338,35.5475283 32.1953609,35.3906739 C32.3061001,35.0770004 32.4246966,34.7646888 32.5504389,34.4551542 C32.8026369,33.8367748 33.0819769,33.2287605 33.4027798,32.6457034 C33.7235644,32.0639376 34.0843672,31.5029194 34.5165915,31.0109717 C34.9481208,30.52525 35.4839569,30.123138 36.0898062,29.9248413 C36.4527488,29.8066928 36.6570824,29.2857143 35.9997857,29.2857143 L35.9996174,29.2857143 Z" id="Path" fill="#4DA8CF" fill-rule="nonzero"></path>
            </g>
        </g>
    </g>
</svg>
