<?xml version="1.0" encoding="UTF-8"?>
<svg width="6px" height="10px" viewBox="0 0 6 10" version="1.1" xmlns="http://www.w3.org/2000/svg" xmlns:xlink="http://www.w3.org/1999/xlink">
    <title>np_back_1227057_FFFFFF</title>
    <g id="Page-1" stroke="none" stroke-width="1" fill="none" fill-rule="evenodd">
        <g id="My-****---Deposit-order" transform="translate(-98.000000, -141.000000)" fill="#0083BB" fill-rule="nonzero">
            <g id="Group-4" transform="translate(98.000000, 136.000000)">
                <g id="np_back_1227057_FFFFFF" transform="translate(0.000000, 5.000000)">
                    <path d="M5.67486342,8.27142367 L2.10333564,4.8296614 L5.67486342,1.38789913 C5.80465058,1.25811197 5.88032368,1.0957698 5.88032368,0.911868586 C5.88032368,0.727967374 5.81521797,0.554629226 5.68542649,0.424842071 C5.555635,0.295054916 5.39329716,0.219381818 5.20939595,0.219381818 L5.1984043,0.219381818 C5.02506615,0.219381818 4.85216092,0.284487523 4.72237376,0.414279007 L0.642282071,4.34263488 C0.512494916,4.47242204 0.436821818,4.64576018 0.436821818,4.8296614 C0.436821818,5.01356261 0.51249708,5.19746382 0.642282071,5.31668791 L4.73341303,9.2454767 C4.86320018,9.36470079 5.02554236,9.44037389 5.20944357,9.44037389 C5.39334478,9.44037389 5.56668293,9.36469863 5.69647008,9.23491363 C5.82625724,9.10512648 5.89136727,8.93178833 5.89136727,8.74788712 C5.89136727,8.56356382 5.81569201,8.39022567 5.67491104,8.27143449 L5.67486342,8.27142367 Z" id="Path"></path>
                </g>
            </g>
        </g>
    </g>
</svg>
