<?xml version="1.0" encoding="UTF-8"?>
<svg width="20px" height="14px" viewBox="0 0 20 14" version="1.1" xmlns="http://www.w3.org/2000/svg" xmlns:xlink="http://www.w3.org/1999/xlink">
    <g id="Page-1" stroke="none" stroke-width="1" fill-rule="evenodd">
        <g id="E-commerce-saas-Copy" transform="translate(-516.000000, -4299.000000)" fill="#000000" fill-rule="nonzero">
            <g fill="#8992A1" id="account-supervisor-outline" transform="translate(516.000000, 4299.000000)">
                <path d="M14.5,9 C16.2761765,9 19.7857093,9.8666782 19.990616,11.5908913 L20,11.75 L20,14 L9,14 L9,11.75 C9,9.92 12.67,9 14.5,9 Z M7,8 C7.79623689,8.00629828 8.58997365,8.09002579 9.37,8.25 C8.77650796,8.56121436 8.24988372,8.98591133 7.82,9.5 C4.38540541,9.34432432 1.65135135,10.7885318 1.50607348,11.4469978 L1.5,11.5 L1.5,12.5 L7,12.5 L7,14 L0,14 L0,11.5 C0,9.17 4.67,8 7,8 Z M14.5,2 C15.8807119,2 17,3.11928813 17,4.5 C17,5.88071187 15.8807119,7 14.5,7 C13.1192881,7 12,5.88071187 12,4.5 C12,3.11928813 13.1192881,2 14.5,2 Z M7,0 C8.65685425,0 10,1.34314575 10,3 C10,4.65685425 8.65685425,6 7,6 C5.34314575,6 4,4.65685425 4,3 C4,1.34314575 5.34314575,0 7,0 Z M7,1.5 C6.17157288,1.5 5.5,2.17157288 5.5,3 C5.5,3.82842712 6.17157288,4.5 7,4.5 C7.82842712,4.5 8.5,3.82842712 8.5,3 C8.5,2.17157288 7.82842712,1.5 7,1.5 Z" id="Combined-Shape"></path>
            </g>
        </g>
    </g>
</svg>
