<svg width="20px" height="12px" viewBox="0 0 20 12" version="1.1" xmlns="http://www.w3.org/2000/svg" xmlns:xlink="http://www.w3.org/1999/xlink">
    <!-- Generator: Sketch 59.1 (86144) - https://sketch.com -->
    <title>united-kingdom</title>
    <g id="Page-1" stroke="none" stroke-width="1" fill="none" fill-rule="evenodd">
        <g id="united-kingdom">
            <polygon id="Path" fill="#FFFFFF" points="19.9974133 12.118625 19.9974133 0.00395445856 0.00258667171 0.00395445856 0.00258667171 12.118625"></polygon>
            <polygon id="Path" fill="#33348E" points="19.9974133 12.118625 19.9974133 0.00395445856 0.00258667171 0.00395445856 0.00258667171 12.118625"></polygon>
            <polygon id="Path" fill="#FFFFFF" points="12.3177197 12.118625 12.3177197 7.89184691 19.9974133 7.89184691 19.9974133 4.23073257 12.3177197 4.23073257 12.3177197 0.00395445856 7.57442643 0.00395445856 7.57442643 4.23073257 0.00258667171 4.23073257 0.00258667171 7.89184691 7.57442643 7.89184691 7.57442643 12.118625 12.3177197 12.118625"></polygon>
            <polygon id="Path" fill="#FFFFFF" fill-rule="nonzero" points="2.43760314 0.00395445856 19.9974133 10.6438262 19.9974133 12.1188526 17.6057432 12.1188526 0.00258667171 1.45269995 0.00258667171 0.00395445856"></polygon>
            <polygon id="Path" fill="#FFFFFF" fill-rule="nonzero" points="17.5625106 0.00395445856 0.00258667171 10.6438262 0.00258667171 12.1188526 2.39437059 12.1188526 19.9974133 1.45269995 19.9974133 0.00395445856"></polygon>
            <polygon id="Path" fill="#CC2229" points="19.9974133 4.89275943 11.4462426 4.89275943 11.4462426 0.00395445856 8.56194888 0.00395445856 8.56194888 4.89275943 0.00258667171 4.89275943 0.00258667171 7.22982005 8.56194888 7.22982005 8.56194888 12.118625 11.4462426 12.118625 11.4462426 7.22982005 19.9974133 7.22982005"></polygon>
            <path d="M0.0116882611,0.00395445856 L6.95790752,4.23073257 L5.39891902,4.23073257 L0.00258667171,0.946992889 L0.00258667171,0.00395445856 L0.0116882611,0.00395445856 Z M0.00258667171,12.0975776 L0.00258667171,12.1188526 L1.52642028,12.1188526 L7.57442643,8.43862489 L7.57442643,7.89184691 L6.91399235,7.89184691 L0.00258667171,12.0975776 Z M19.9974133,12.1188526 L19.9974133,11.2357708 L14.5019874,7.89184691 L12.9429989,7.89184691 L19.8896733,12.1188526 L19.9974133,12.1188526 Z M18.3491155,0.00395445856 L12.3177197,3.67417038 L12.3177197,4.23073257 L12.9618847,4.23073257 L19.908104,0.00395445856 L18.3491155,0.00395445856 Z" id="Shape" fill="#CC2229" fill-rule="nonzero"></path>
        </g>
    </g>
</svg>
