<svg xmlns="http://www.w3.org/2000/svg" width="91" height="78" viewBox="0 0 91 78">
    <g fill="none">
        <path fill="#B3DAEB" d="M71.314 28.718l18.582 16.75-1.213 1.35L70.62 30.535H21.74L3.674 46.818l-1.212-1.349 18.582-16.751h50.27z"/>
        <path fill="#E6F3F8" d="M1 47l.848 26.022c0 1.098.861 3.991 1.921 3.991h81.773c1.06 0 2.922-2.893 2.922-3.991v-25.91H63.242c-.93 6.202-5.116 10.962-11.354 10.962H38.423C32.185 58.074 27.927 53.199 27 47H1z"/>
        <path fill="#B3DAEB" d="M28.77 45.128v.992c0 5.487 4.322 9.967 9.653 9.967h13.461c5.331 0 9.654-4.48 9.654-9.967v-.992h28.77v27.894C90.31 75.772 88.162 78 85.542 78H4.769C2.15 78 0 75.773 0 73.022V45.128h28.77zm59.694 1.983H63.38l-.128.852-.048.298c-.986 5.635-5.743 9.813-11.317 9.813H38.423l-.292-.004c-5.546-.146-10.223-4.422-11.073-10.103l-.127-.852-25.083-.004v25.91l.004.176c.089 1.562 1.355 2.816 2.917 2.816h80.773l.172-.005c1.54-.091 2.75-1.402 2.75-2.986V47.11zM26.652 2.4l5.804 8.633-1.621.978-5.804-8.634 1.621-.978zM65.705 2.4l1.623.977-5.803 8.634-1.622-.978L65.705 2.4zM47.23 0v10.308h-2.102V0h2.103z"/>
    </g>
</svg>
