<?xml version="1.0" encoding="UTF-8"?>
<svg width="40px" height="35px" viewBox="0 0 40 35" version="1.1" xmlns="http://www.w3.org/2000/svg" xmlns:xlink="http://www.w3.org/1999/xlink">
    <!-- Generator: Sketch 59.1 (86144) - https://sketch.com -->
    <title>icon-profit</title>
    <desc>Created with Sketch.</desc>
    <g id="Page-1" stroke="none" stroke-width="1" fill="none" fill-rule="evenodd">
        <g id="My-****----Update-strategy-New-strategy" transform="translate(-130.000000, -307.000000)" fill="#B3DAEB" fill-rule="nonzero">
            <g id="icon-profit" transform="translate(130.000000, 307.000000)">
                <path d="M39.5784211,33.3673684 C39.6318737,33.2625158 39.6318737,33.1042105 39.5784211,32.9459053 C39.5249684,32.8924526 39.5249684,32.8410526 39.4735684,32.7876 L38.1577789,31.4718105 C37.9480737,31.2621053 37.6314632,31.2621053 37.4217789,31.4718105 C37.2120737,31.6815158 37.2120737,31.9981263 37.4217789,32.2078105 L37.8432421,32.6292737 L2.7364,32.6313295 L2.7364,1.78817158 L3.15786316,2.20963474 C3.26271579,2.31448737 3.42102105,2.36794 3.52587368,2.36794 C3.63072632,2.36794 3.78903158,2.31448737 3.89388421,2.20963474 C4.10358947,1.99992947 4.10358947,1.68331895 3.89388421,1.47363474 L2.63156842,0.157845263 C2.57811579,0.104392632 2.52671579,0.0529926316 2.47326316,0.0529926316 C2.36841053,-0.00046 2.21010526,-0.00046 2.0518,0.0529926316 C1.99834737,0.106445263 1.94694737,0.106445263 1.89349474,0.157845263 L0.526284211,1.47363474 C0.316578947,1.68334 0.316578947,1.99995053 0.526284211,2.20963474 C0.735989474,2.41934 1.0526,2.41934 1.26228421,2.20963474 L1.68374737,1.78817158 L1.68374737,33.1576453 C1.68374737,33.4742558 1.89345263,33.6839611 2.21006316,33.6839611 L37.7900632,33.6839611 L37.3686,34.1054242 C37.1588947,34.3151295 37.1588947,34.63174 37.3686,34.8414242 C37.4734526,34.9462768 37.6317579,34.9997295 37.7366105,34.9997295 C37.8414632,34.9997295 37.9997684,34.9462768 38.1046211,34.8414242 L39.4204105,33.5256347 C39.4738632,33.4742363 39.5273158,33.4207821 39.5787158,33.3673295 L39.5784211,33.3673684 Z" id="Path"></path>
                <path d="M9.57842105,29.4736842 L12.7363158,29.4736842 C13.0529263,29.4736842 13.2626316,29.2639789 13.2626316,28.9473684 L13.2626316,24.2105263 C13.2626316,23.8939158 13.0529263,23.6842105 12.7363158,23.6842105 L9.57842105,23.6842105 C9.26181053,23.6842105 9.05210526,23.8939158 9.05210526,24.2105263 L9.05210526,28.9473684 C9.05210526,29.2639789 9.31526316,29.4736842 9.57842105,29.4736842 L9.57842105,29.4736842 Z" id="Path"></path>
                <path d="M15.6310526,20.5263158 C15.3144421,20.5263158 15.1047368,20.7360211 15.1047368,21.0526316 L15.1047368,28.9473684 C15.1047368,29.2639789 15.3144421,29.4736842 15.6310526,29.4736842 L18.7889474,29.4736842 C19.1055579,29.4736842 19.3152632,29.2639789 19.3152632,28.9473684 L19.3152632,21.0526316 C19.3152632,20.7360211 19.1055579,20.5263158 18.7889474,20.5263158 L15.6310526,20.5263158 Z" id="Path"></path>
                <path d="M21.6836842,16.8421053 C21.3670737,16.8421053 21.1573684,17.0518105 21.1573684,17.3684211 L21.1573684,28.9473684 C21.1573684,29.2639789 21.3670737,29.4736842 21.6836842,29.4736842 L24.8415789,29.4736842 C25.1581895,29.4736842 25.3678947,29.2639789 25.3678947,28.9473684 L25.3678947,17.3684211 C25.3678947,17.0518105 25.1581895,16.8421053 24.8415789,16.8421053 L21.6836842,16.8421053 Z" id="Path"></path>
                <path d="M27.6852632,11.0526316 C27.3686526,11.0526316 27.1589474,11.2623368 27.1589474,11.5789474 L27.1589474,28.9473684 C27.1589474,29.2639789 27.3686526,29.4736842 27.6852632,29.4736842 L30.8431579,29.4736842 C31.1597684,29.4736842 31.3694737,29.2639789 31.3694737,28.9473684 L31.3694737,11.5789474 C31.3694737,11.2623368 31.1597684,11.0526316 30.8431579,11.0526316 L27.6852632,11.0526316 Z" id="Path"></path>
                <path d="M9.57842105,19.6831579 C9.63187368,19.6831579 9.68327368,19.6831579 9.78812632,19.6297053 C9.94643158,19.5762526 23.1554947,14.4200211 30.5776,3.57707368 L30.9456105,5.57749474 C30.9990632,5.84065263 31.2087684,5.99895789 31.4719263,5.99895789 L31.5767789,5.99895789 C31.8399368,5.94550526 32.0496421,5.68234737 31.9982421,5.3678 L31.3670842,2.05158947 C31.3670842,1.99813684 31.3136316,1.99813684 31.3136316,1.94673684 C31.3136316,1.89328421 31.3136316,1.89328421 31.2601789,1.84188421 C31.2601789,1.78843158 31.2067263,1.78843158 31.2067263,1.78843158 L31.1532737,1.73497895 C31.1532737,1.73497895 31.0998211,1.73497895 31.0484211,1.68152632 C30.9949684,1.68152632 30.9949684,1.62807368 30.9435684,1.62807368 L30.8387158,1.62807368 L30.7338632,1.62807368 L27.4176526,2.25923158 C27.1544947,2.31268421 26.9447895,2.57584211 26.9961895,2.89038947 C27.0496421,3.207 27.3128,3.36325263 27.6273474,3.31185263 L29.7326105,2.94384211 C22.5268211,13.5791053 9.52682105,18.6306842 9.41997895,18.6838421 C9.15682105,18.7886947 8.99851579,19.1053053 9.10336842,19.3684737 C9.15682105,19.5781789 9.36858421,19.6831579 9.57828421,19.6831579 L9.57842105,19.6831579 Z" id="Path"></path>
            </g>
        </g>
    </g>
</svg>