<?xml version="1.0" encoding="UTF-8"?>
<svg width="400px" height="125px" viewBox="0 0 400 125" version="1.1" xmlns="http://www.w3.org/2000/svg" xmlns:xlink="http://www.w3.org/1999/xlink">
    <title>logo-blue</title>
    <g id="Page-1" stroke="none" stroke-width="1" fill="none" fill-rule="evenodd">
        <g id="My-****---Withdraw" transform="translate(-515.000000, -406.000000)" fill="#0083BC" fill-rule="nonzero">
            <g id="logo-blue" transform="translate(515.000000, 406.000000)">
                <g id="Group" opacity="0.4" transform="translate(0.000000, 85.603113)">
                    <g id="Path">
                        <path d="M6.5323741,13.3123125 C10.1006544,13.2800901 12.9706265,10.3262348 12.9496427,6.70754403 C12.9284277,3.08885323 10.0242117,0.169621761 6.45580579,0.180219888 C2.88739991,0.190875862 0.000140977477,3.12735489 0,6.74610895 C0.017179089,10.3880624 2.94106468,13.3270651 6.5323741,13.3123125"></path>
                    </g>
                </g>
                <path d="M31.1127098,105.498541 C34.6306954,105.498541 37.6402878,102.51216 37.6402878,98.932393 C37.6402878,98.8424125 37.6402878,85.9168288 37.6402878,85.8268482 C37.6402878,82.1675589 34.7151074,79.2011189 31.1067146,79.2011189 C27.4983219,79.2011189 24.5731415,82.1675589 24.5731415,85.8268482 L24.5731415,98.959144 C24.5731415,102.514591 27.6115108,105.500973 31.1055156,105.500973" id="Path"></path>
                <path d="M55.6450839,112.067121 C59.1630695,112.067121 62.1726619,109.212062 62.1726619,105.634728 C62.1726619,105.544747 62.1318945,92.473249 62.1318945,92.3832685 C62.1318945,88.7239791 59.2067142,85.7575389 55.5983213,85.7575389 C51.9899285,85.7575389 49.0647482,88.7239791 49.0647482,92.3832685 C49.0647482,92.5 49.1103118,105.542315 49.1103118,105.656615 C49.1103118,109.212062 52.1486811,112.067121 55.6426859,112.067121" id="Path"></path>
                <g id="Group" opacity="0.4" transform="translate(48.920863, 59.338521)">
                    <g id="Path">
                        <path d="M6.67625899,22.0014591 C10.1942446,22.0014591 13.2038369,19.1464008 13.2038369,15.5690661 C13.2038369,15.4790856 13.2038369,6.83122568 13.2038369,6.74124514 C13.2038369,3.08195574 10.2786566,0.115515564 6.67026379,0.115515564 C3.06187098,0.115515564 0.136690647,3.08195574 0.136690647,6.74124514 L0.136690647,15.5933852 C0.136690647,19.1488327 3.17505995,22.0038911 6.66906475,22.0038911"></path>
                    </g>
                </g>
                <path d="M55.6258993,55.0364786 C59.2336299,55.0364786 62.1582734,52.0705828 62.1582734,48.411965 C62.1582734,44.7533471 59.2336299,41.7874514 55.6258993,41.7874514 C52.0181687,41.7874514 49.0935252,44.7533471 49.0935252,48.411965 C49.0935252,52.0705828 52.0181687,55.0364786 55.6258993,55.0364786" id="Path"></path>
                <g id="Group" opacity="0.4" transform="translate(73.621103, 65.904669)">
                    <g id="Path">
                        <path d="M6.55395683,39.4917315 C10.0719424,39.4917315 13.0815348,36.6366732 13.0815348,33.0593385 C13.0815348,32.969358 13.0815348,6.85554475 13.0815348,6.7631323 C13.0815348,3.1038429 10.1563544,0.137402724 6.54796163,0.137402724 C2.93956882,0.137402724 0.0143884892,3.1038429 0.0143884892,6.7631323 L0.0143884892,33.0836576 C0.0143884892,36.6391051 3.05275779,39.4941634 6.54676259,39.4941634"></path>
                    </g>
                </g>
                <g id="Group" opacity="0.4" transform="translate(73.621103, 35.262646)">
                    <g id="Path">
                        <path d="M6.55395683,26.3861868 C10.0719424,26.3861868 13.0815348,23.5311284 13.0815348,19.9537938 C13.0815348,19.8638132 13.0815348,6.80447471 13.0815348,6.71206226 C13.0815348,3.05277286 10.1563544,0.0863326848 6.54796163,0.0863326848 C2.93956882,0.0863326848 0.0143884892,3.05277286 0.0143884892,6.71206226 L0.0143884892,19.9756809 C0.0143884892,23.5311284 3.05275779,26.3861868 6.54676259,26.3861868"></path>
                    </g>
                </g>
                <path d="M80.17506,30.9314202 C83.6930456,30.9314202 86.7026379,28.0763619 86.7026379,24.4990272 C86.7026379,24.4090467 86.7026379,6.96011673 86.7026379,6.86770428 C86.7026379,3.20841488 83.7774576,0.241974708 80.1690647,0.241974708 C76.5606719,0.241974708 73.6354916,3.20841488 73.6354916,6.86770428 L73.6354916,24.5209144 C73.6354916,28.0763619 76.6738609,30.9314202 80.1678657,30.9314202" id="Path"></path>
                <path d="M179.618705,29.4722763 C183.402584,29.4722763 186.470024,26.3615699 186.470024,22.5243191 C186.470024,18.6870683 183.402584,15.5763619 179.618705,15.5763619 C175.834826,15.5763619 172.767386,18.6870683 172.767386,22.5243191 C172.767386,24.3670319 173.489219,26.134272 174.774091,27.4372667 C176.058962,28.7402614 177.801622,29.4722763 179.618705,29.4722763" id="Path"></path>
                <path d="M179.618705,85.7733463 C182.932854,85.7733463 185.769784,83.0836576 185.769784,79.7106031 C185.769784,79.6254864 185.769784,42.0865759 185.769784,42.0014591 C185.769784,38.5537088 183.013705,35.7587549 179.613909,35.7587549 C176.214113,35.7587549 173.458034,38.5537088 173.458034,42.0014591 L173.458034,79.7324903 C173.458034,83.0812257 176.321343,85.7733463 179.613909,85.7733463" id="Path"></path>
                <path d="M148.973621,55.182393 C148.973621,55.2675097 148.973621,65.0170233 148.973621,65.1021401 C148.973621,68.4581712 146.956835,71.8214981 142.822542,71.8214981 C138.688249,71.8214981 136.652278,68.4557393 136.652278,65.1215953 L136.652278,55.182393 C136.652278,51.7509728 138.657074,48.4046693 142.808153,48.4046693 C146.959233,48.4046693 148.964029,51.7509728 148.964029,55.182393 M162.223022,37.969358 C159.992806,35.3842412 156.115108,35.3842412 153.93765,37.5924125 C153.613909,37.9207198 153.218225,38.2928016 153.218225,38.2928016 C153.218225,38.2928016 150.1247,35.8949416 142.820144,35.8949416 C133.551559,35.9678988 124.213429,42.2178988 124.354916,53.7354086 C124.393285,57.0087549 124.338129,59.7641051 124.335731,65.651751 C124.335731,74.192607 130.129496,80.0851167 133.033573,82.0476654 C138.199041,85.3210117 142.273381,84.0442607 145.235012,84.6911479 C147.040767,85.0851167 148.966427,86.3059339 148.966427,89.3506809 C148.966427,92.7115759 151.743405,95.6736381 154.930456,95.6736381 C158.436451,95.6736381 161.323741,92.9766537 161.323741,89.4844358 C161.323741,86.8725681 160.028777,85.0072957 158.117506,84.0393969 C156.980815,83.463035 154.592326,81.1211089 155.239808,77.5753891 C156.199041,72.4051556 161.314149,73.7281128 161.314149,65.1896887 L161.314149,53.6940661 C161.280066,51.7345221 161.03888,49.7843335 160.594724,47.8769455 C160.594724,47.8769455 161.82494,46.6950389 162.141487,46.3715953 C164.465228,44.0150778 164.465228,40.5544747 162.235012,37.969358" id="Shape"></path>
                <path d="M162.46283,106.269455 C162.502217,104.590369 161.872249,102.966121 160.715443,101.764162 C159.558636,100.562203 157.972747,99.8841031 156.316547,99.8832685 C152.916067,99.8832685 150.47482,102.44893 150.275779,106.023833 C150.148681,108.285506 148.781775,111.840953 144.318945,112.127918 C140.925659,112.344358 137.930456,109.238813 137.930456,105.79037 C137.930456,103.69893 139.347722,101.656128 140.906475,100.530156 C142.182254,99.557393 143.544365,97.6434825 143.544365,95.3550584 C143.533803,91.9137242 140.781972,89.1285141 137.388489,89.1245136 C135.798561,89.1245136 134.52518,89.8540856 133.901679,90.2237354 C128.655216,93.6768707 125.489209,99.5885907 125.489209,105.93142 C125.489209,116.284047 133.796163,124.768969 144.004796,124.768969 C153.83693,124.768969 162.251799,117.013619 162.470024,106.271887" id="Path"></path>
                <path d="M233.494005,79.8613813 L233.494005,54.5038911 L233.494005,54.5038911 C233.378891,44.2753183 225.169696,36.0448025 215.082734,36.0448025 C204.995772,36.0448025 196.786577,44.2753183 196.671463,54.5038911 L196.671463,54.5038911 L196.671463,79.8613813 C196.671463,83.2101167 199.534772,85.9022374 202.827338,85.9022374 C206.081535,85.9022374 208.865707,83.307393 208.968825,80.0243191 L208.968825,55.131323 C208.968825,51.4080739 211.213429,48.3219844 215.083933,48.3219844 C218.954436,48.3219844 221.199041,51.4129377 221.199041,55.131323 C221.199041,55.1848249 221.199041,69.0175097 221.199041,79.9635214 C221.263789,83.2782101 224.076739,85.9071012 227.342926,85.9071012 C230.609113,85.9071012 233.498801,83.2174125 233.498801,79.8662451" id="Path"></path>
                <path d="M399.961631,79.7324903 L399.961631,54.3701362 L399.961631,54.3701362 C399.846516,44.1415634 391.637321,35.9110476 381.55036,35.9110476 C371.463398,35.9110476 363.254203,44.1415634 363.139089,54.3701362 L363.139089,54.3701362 L363.139089,79.7349222 C363.139089,83.0836576 366.002398,85.7757782 369.294964,85.7757782 C372.549161,85.7757782 375.333333,83.1809339 375.436451,79.8978599 L375.436451,54.9951362 C375.436451,51.2718872 377.681055,48.1857977 381.553957,48.1857977 C385.426859,48.1857977 387.669065,51.276751 387.669065,54.9951362 C387.669065,55.0486381 387.669065,68.881323 387.669065,79.8273346 C387.733813,83.1420233 390.546763,85.7709144 393.81295,85.7709144 C397.079137,85.7709144 399.961631,83.0836576 399.961631,79.7324903" id="Path"></path>
                <path d="M305.657074,79.7324903 L305.657074,54.3701362 L305.657074,54.3701362 C305.634789,47.0151511 301.356373,40.3587989 294.729736,37.3694018 C288.103099,34.3800048 280.363229,35.6146883 274.961631,40.5228599 C269.560032,35.6146883 261.820162,34.3800048 255.193525,37.3694018 C248.566889,40.3587989 244.288473,47.0151511 244.266187,54.3701362 L244.266187,54.3701362 L244.266187,79.7324903 C244.266187,83.0812257 247.129496,85.7733463 250.422062,85.7733463 C253.676259,85.7733463 256.460432,83.1785019 256.563549,79.895428 L256.563549,54.9951362 C256.563549,51.2718872 258.808153,48.1857977 262.678657,48.1857977 C266.549161,48.1857977 268.793765,51.276751 268.793765,54.9951362 C268.793765,55.0486381 268.793765,68.881323 268.793765,79.8273346 C268.858513,83.1420233 271.671463,85.7709144 274.93765,85.7709144 L274.985612,85.7709144 C278.239808,85.7709144 281.023981,83.17607 281.127098,79.8929961 L281.127098,54.9951362 C281.127098,51.2718872 283.371703,48.1857977 287.244604,48.1857977 C291.117506,48.1857977 293.359712,51.276751 293.359712,54.9951362 C293.359712,55.0486381 293.359712,68.881323 293.359712,79.8273346 C293.42446,83.1420233 296.23741,85.7709144 299.503597,85.7709144 C302.769784,85.7709144 305.659472,83.0812257 305.659472,79.7300584" id="Path"></path>
                <path d="M340.609113,63.3657588 L340.609113,66.5272374 C340.609113,70.2504864 338.364508,73.3365759 334.494005,73.3365759 C330.623501,73.3365759 328.378897,70.2456226 328.378897,66.5272374 C328.378897,66.5004864 328.378897,63.0447471 328.378897,58.2320039 L328.378897,58.2320039 L328.378897,55.0705253 C328.378897,51.3472763 330.623501,48.2611868 334.494005,48.2611868 C338.364508,48.2611868 340.609113,51.3521401 340.609113,55.0705253 C340.609113,55.0972763 340.609113,58.5530156 340.609113,63.3681907 L340.609113,63.3657588 Z M352.906475,67.1571012 L352.906475,54.4430934 L352.906475,54.4430934 C352.791361,44.2145206 344.582166,35.9840048 334.495204,35.9840048 C324.408242,35.9840048 316.199047,44.2145206 316.083933,54.4430934 L316.083933,54.4430934 L316.083933,67.1571012 L316.083933,67.1571012 C316.199047,77.385674 324.408242,85.6161898 334.495204,85.6161898 C344.582166,85.6161898 352.791361,77.385674 352.906475,67.1571012 Z" id="Shape"></path>
            </g>
        </g>
    </g>
</svg>
