<?xml version="1.0" encoding="UTF-8"?>
<svg width="78px" height="24px" viewBox="0 0 78 24" version="1.1" xmlns="http://www.w3.org/2000/svg" xmlns:xlink="http://www.w3.org/1999/xlink">
    <!-- Generator: sketchtool 59 (101010) - https://sketch.com -->
    <title>DB34ACAA-0C9C-4124-A70E-CD83F967624B</title>
    <desc>Created with sketchtool.</desc>
    <g id="04-My****" stroke="none" stroke-width="1" fill="none" fill-rule="evenodd">
        <g id="My-****---Overview---Mobile" transform="translate(-52.000000, -16.000000)" fill="#FFFFFF" fill-rule="nonzero">
            <g id="Group-5" transform="translate(52.000000, 16.000000)">
                <g id="header-logged-out">
                    <g id="****-Logo-white">
                        <g id="Group" opacity="0.4" transform="translate(0.000000, 16.435798)">
                            <g id="Path">
                                <path d="M1.27190661,2.555964 C1.96667994,2.5497773 2.52548696,1.98263709 2.52140125,1.28784845 C2.51727052,0.59305982 1.95179592,0.0325673781 1.25699814,0.0346022186 C0.562200356,0.0366481654 2.74494667e-05,0.600452139 0,1.29525292 C0.003344909,1.99450799 0.572649326,2.55879651 1.27190661,2.555964"></path>
                            </g>
                        </g>
                        <path d="M6.05789883,20.2557198 C6.74287938,20.2557198 7.3288716,19.6823346 7.3288716,18.9950195 C7.3288716,18.9777432 7.3288716,16.4960311 7.3288716,16.4787549 C7.3288716,15.7761713 6.75931507,15.2066148 6.05673152,15.2066148 C5.35414797,15.2066148 4.78459144,15.7761713 4.78459144,16.4787549 L4.78459144,19.0001556 C4.78459144,19.6828016 5.37618677,20.2561868 6.05649805,20.2561868" id="Path"></path>
                        <path d="M10.8345525,21.5168872 C11.5195331,21.5168872 12.1055253,20.968716 12.1055253,20.2818677 C12.1055253,20.2645914 12.0975875,17.7548638 12.0975875,17.7375875 C12.0975875,17.035004 11.528031,16.4654475 10.8254475,16.4654475 C10.1228639,16.4654475 9.55330739,17.035004 9.55330739,17.7375875 C9.55330739,17.76 9.56217899,20.2641245 9.56217899,20.28607 C9.56217899,20.968716 10.1537743,21.5168872 10.8340856,21.5168872" id="Path"></path>
                        <g id="Group" opacity="0.4" transform="translate(9.525292, 11.392996)">
                            <g id="Path">
                                <path d="M1.29992218,4.22428016 C1.98490272,4.22428016 2.57089494,3.67610895 2.57089494,2.9892607 C2.57089494,2.97198444 2.57089494,1.31159533 2.57089494,1.29431907 C2.57089494,0.591735502 2.00133843,0.0221789883 1.29875486,0.0221789883 C0.596171299,0.0221789883 0.026614786,0.591735502 0.026614786,1.29431907 L0.026614786,2.99392996 C0.026614786,3.67657588 0.618210117,4.22474708 1.2985214,4.22474708"></path>
                            </g>
                        </g>
                        <path d="M10.8308171,10.5670039 C11.5332717,10.5670039 12.1027237,9.9975519 12.1027237,9.29509728 C12.1027237,8.59264265 11.5332717,8.02319066 10.8308171,8.02319066 C10.1283625,8.02319066 9.55891051,8.59264265 9.55891051,9.29509728 C9.55891051,9.9975519 10.1283625,10.5670039 10.8308171,10.5670039" id="Path"></path>
                        <g id="Group" opacity="0.4" transform="translate(14.334630, 12.653696)">
                            <g id="Path">
                                <path d="M1.27610895,7.58241245 C1.96108949,7.58241245 2.54708171,7.03424125 2.54708171,6.347393 C2.54708171,6.33011673 2.54708171,1.31626459 2.54708171,1.2985214 C2.54708171,0.595937836 1.9775252,0.026381323 1.27494163,0.026381323 C0.57235807,0.026381323 0.00280155642,0.595937836 0.00280155642,1.2985214 L0.00280155642,6.35206226 C0.00280155642,7.03470817 0.594396887,7.58287938 1.27470817,7.58287938"></path>
                            </g>
                        </g>
                        <g id="Group" opacity="0.4" transform="translate(14.334630, 6.770428)">
                            <g id="Path">
                                <path d="M1.27610895,5.06614786 C1.96108949,5.06614786 2.54708171,4.51797665 2.54708171,3.8311284 C2.54708171,3.81385214 2.54708171,1.30645914 2.54708171,1.28871595 C2.54708171,0.586132389 1.9775252,0.0165758755 1.27494163,0.0165758755 C0.57235807,0.0165758755 0.00280155642,0.586132389 0.00280155642,1.28871595 L0.00280155642,3.83533074 C0.00280155642,4.51797665 0.594396887,5.06614786 1.27470817,5.06614786"></path>
                            </g>
                        </g>
                        <path d="M15.6107393,5.93883268 C16.2957198,5.93883268 16.8817121,5.39066148 16.8817121,4.70381323 C16.8817121,4.68653696 16.8817121,1.33634241 16.8817121,1.31859922 C16.8817121,0.616015657 16.3121555,0.046459144 15.609572,0.046459144 C14.9069884,0.046459144 14.3374319,0.616015657 14.3374319,1.31859922 L14.3374319,4.70801556 C14.3374319,5.39066148 14.9290272,5.93883268 15.6093385,5.93883268" id="Path"></path>
                        <path d="M34.9732296,5.65867704 C35.7099817,5.65867704 36.3072374,5.06142141 36.3072374,4.32466926 C36.3072374,3.58791711 35.7099817,2.99066148 34.9732296,2.99066148 C34.2364774,2.99066148 33.6392218,3.58791711 33.6392218,4.32466926 C33.6392218,4.67847012 33.7797686,5.01778022 34.0299436,5.26795521 C34.2801186,5.5181302 34.6194287,5.65867704 34.9732296,5.65867704" id="Path"></path>
                        <path d="M34.9732296,16.4684825 C35.6185214,16.4684825 36.1708949,15.9520623 36.1708949,15.3044358 C36.1708949,15.2880934 36.1708949,8.08062257 36.1708949,8.06428016 C36.1708949,7.40231208 35.6342638,6.86568093 34.9722957,6.86568093 C34.3103276,6.86568093 33.7736965,7.40231208 33.7736965,8.06428016 L33.7736965,15.3086381 C33.7736965,15.9515953 34.3312062,16.4684825 34.9722957,16.4684825" id="Path"></path>
                        <path d="M29.0063813,10.5950195 C29.0063813,10.6113619 29.0063813,12.4832685 29.0063813,12.4996109 C29.0063813,13.1439689 28.6136965,13.7897276 27.808716,13.7897276 C27.0037354,13.7897276 26.6073152,13.1435019 26.6073152,12.5033463 L26.6073152,10.5950195 C26.6073152,9.93618677 26.9976654,9.2936965 27.8059144,9.2936965 C28.6141634,9.2936965 29.0045136,9.93618677 29.0045136,10.5950195 M31.5861479,7.29011673 C31.1519066,6.79377432 30.3968872,6.79377432 29.9729183,7.21774319 C29.9098833,7.28077821 29.8328405,7.3522179 29.8328405,7.3522179 C29.8328405,7.3522179 29.2305058,6.89182879 27.808249,6.89182879 C26.0035798,6.90583658 24.1853696,8.10583658 24.2129183,10.3171984 C24.2203891,10.9456809 24.2096498,11.4747082 24.2091829,12.6051362 C24.2091829,14.2449805 25.3372763,15.3763424 25.9027237,15.7531518 C26.9084825,16.3816342 27.7017899,16.1364981 28.2784436,16.2607004 C28.6300389,16.3363424 29.0049805,16.5707393 29.0049805,17.1553307 C29.0049805,17.8006226 29.5456809,18.3693385 30.1662257,18.3693385 C30.8488716,18.3693385 31.4110506,17.8515175 31.4110506,17.1810117 C31.4110506,16.6795331 31.1589105,16.3214008 30.7867704,16.1355642 C30.5654475,16.0249027 30.1003891,15.5752529 30.2264591,14.8944747 C30.4132296,13.9017899 31.4091829,14.1557977 31.4091829,12.5164202 L31.4091829,10.3092607 C31.4025468,9.93302825 31.3555857,9.55859204 31.2691051,9.19237354 C31.2691051,9.19237354 31.5086381,8.96544747 31.5702724,8.9033463 C32.0227237,8.45089494 32.0227237,7.78645914 31.5884825,7.29011673" id="Shape"></path>
                        <path d="M31.6328405,20.4037354 C31.6405095,20.0813509 31.5178497,19.7694953 31.29261,19.5387191 C31.0673703,19.3079429 30.7585846,19.1777478 30.4361089,19.1775875 C29.7740078,19.1775875 29.298677,19.6701946 29.2599222,20.3565759 C29.2351751,20.7908171 28.9690272,21.473463 28.1000778,21.5285603 C27.4393774,21.5701167 26.8561868,20.9738521 26.8561868,20.311751 C26.8561868,19.9101946 27.1321401,19.5179767 27.435642,19.3017899 C27.6840467,19.1150195 27.9492607,18.7475486 27.9492607,18.3081712 C27.9472044,17.647435 27.4114004,17.1126747 26.7506615,17.1119066 C26.4410895,17.1119066 26.1931518,17.2519844 26.071751,17.3229572 C25.0502218,17.9859592 24.4337743,19.1210094 24.4337743,20.3388327 C24.4337743,22.326537 26.0512062,23.955642 28.0389105,23.955642 C29.9533074,23.955642 31.591751,22.4666148 31.6342412,20.4042023" id="Path"></path>
                        <path d="M45.4631907,15.3333852 L45.4631907,10.4647471 L45.4631907,10.4647471 C45.440777,8.50086111 43.8423796,6.92060207 41.8783658,6.92060207 C39.9143519,6.92060207 38.3159545,8.50086111 38.2935409,10.4647471 L38.2935409,10.4647471 L38.2935409,15.3333852 C38.2935409,15.9763424 38.8510506,16.4932296 39.4921401,16.4932296 C40.1257588,16.4932296 40.6678599,15.9950195 40.6879377,15.3646693 L40.6879377,10.585214 C40.6879377,9.87035019 41.1249805,9.27782101 41.8785992,9.27782101 C42.6322179,9.27782101 43.0692607,9.87128405 43.0692607,10.585214 C43.0692607,10.5954864 43.0692607,13.2513619 43.0692607,15.3529961 C43.0818677,15.9894163 43.629572,16.4941634 44.2655253,16.4941634 C44.9014786,16.4941634 45.4641245,15.9777432 45.4641245,15.3343191" id="Path"></path>
                        <path d="M77.8757977,15.3086381 L77.8757977,10.4390661 L77.8757977,10.4390661 C77.853384,8.47518017 76.2549866,6.89492114 74.2909728,6.89492114 C72.3269589,6.89492114 70.7285616,8.47518017 70.7061479,10.4390661 L70.7061479,10.4390661 L70.7061479,15.3091051 C70.7061479,15.9520623 71.2636576,16.4689494 71.9047471,16.4689494 C72.5383658,16.4689494 73.0804669,15.9707393 73.1005447,15.3403891 L73.1005447,10.5590661 C73.1005447,9.84420233 73.5375875,9.25167315 74.2916732,9.25167315 C75.0457588,9.25167315 75.4823346,9.84513619 75.4823346,10.5590661 C75.4823346,10.5693385 75.4823346,13.225214 75.4823346,15.3268482 C75.4949416,15.9632685 76.0426459,16.4680156 76.6785992,16.4680156 C77.3145525,16.4680156 77.8757977,15.9520623 77.8757977,15.3086381" id="Path"></path>
                        <path d="M59.51393,15.3086381 L59.51393,10.4390661 L59.51393,10.4390661 C59.5095908,9.026909 58.6765482,7.74888939 57.3862879,7.17492515 C56.0960276,6.60096091 54.5890117,6.83802016 53.5372763,7.78038911 C52.4855408,6.83802016 50.9785249,6.60096091 49.6882646,7.17492515 C48.3980043,7.74888939 47.5649618,9.026909 47.5606226,10.4390661 L47.5606226,10.4390661 L47.5606226,15.3086381 C47.5606226,15.9515953 48.1181323,16.4684825 48.7592218,16.4684825 C49.3928405,16.4684825 49.9349416,15.9702724 49.9550195,15.3399222 L49.9550195,10.5590661 C49.9550195,9.84420233 50.3920623,9.25167315 51.1456809,9.25167315 C51.8992996,9.25167315 52.3363424,9.84513619 52.3363424,10.5590661 C52.3363424,10.5693385 52.3363424,13.225214 52.3363424,15.3268482 C52.3489494,15.9632685 52.8966537,16.4680156 53.532607,16.4680156 L53.5419455,16.4680156 C54.1755642,16.4680156 54.7176654,15.9698054 54.7377432,15.3394553 L54.7377432,10.5590661 C54.7377432,9.84420233 55.174786,9.25167315 55.9288716,9.25167315 C56.6829572,9.25167315 57.1195331,9.84513619 57.1195331,10.5590661 C57.1195331,10.5693385 57.1195331,13.225214 57.1195331,15.3268482 C57.1321401,15.9632685 57.6798444,16.4680156 58.3157977,16.4680156 C58.951751,16.4680156 59.5143969,15.9515953 59.5143969,15.3081712" id="Path"></path>
                        <path d="M66.3193774,12.1662257 L66.3193774,12.7732296 C66.3193774,13.4880934 65.8823346,14.0806226 65.128716,14.0806226 C64.3750973,14.0806226 63.9380545,13.4871595 63.9380545,12.7732296 C63.9380545,12.7680934 63.9380545,12.1045914 63.9380545,11.1805447 L63.9380545,11.1805447 L63.9380545,10.5735409 C63.9380545,9.85867704 64.3750973,9.26614786 65.128716,9.26614786 C65.8823346,9.26614786 66.3193774,9.85961089 66.3193774,10.5735409 C66.3193774,10.578677 66.3193774,11.242179 66.3193774,12.1666926 L66.3193774,12.1662257 Z M68.7137743,12.8941634 L68.7137743,10.4530739 L68.7137743,10.4530739 C68.6913606,8.48918796 67.0929633,6.90892892 65.1289494,6.90892892 C63.1649355,6.90892892 61.5665382,8.48918796 61.5441245,10.4530739 L61.5441245,10.4530739 L61.5441245,12.8941634 L61.5441245,12.8941634 C61.5665382,14.8580494 63.1649355,16.4383084 65.1289494,16.4383084 C67.0929633,16.4383084 68.6913606,14.8580494 68.7137743,12.8941634 Z" id="Shape"></path>
                    </g>
                </g>
            </g>
        </g>
    </g>
</svg>