<?xml version="1.0" encoding="UTF-8"?>
<svg width="48px" height="60px" viewBox="0 0 48 60" version="1.1" xmlns="http://www.w3.org/2000/svg" xmlns:xlink="http://www.w3.org/1999/xlink">
    <!-- Generator: Sketch 59.1 (86144) - https://sketch.com -->
    <title>****-Logo</title>
    <desc>Created with Sketch.</desc>
    <g id="Page-1" stroke="none" stroke-width="1" fill="none" fill-rule="evenodd">
        <g id="My-****---New-tax-exemption-order-Download" transform="translate(-359.000000, -948.000000)" fill="#0083BC" fill-rule="nonzero">
            <g id="****-Logo" transform="translate(359.000000, 948.000000)">
                <g id="Group" opacity="0.4" transform="translate(0.000000, 45.371803)">
                    <g id="Path">
                        <path d="M3.69355932,7.28346893 C5.71114967,7.26583931 7.33389998,5.64971792 7.32203526,3.66984988 C7.31003982,1.68998185 5.66792714,0.0928039229 3.65026578,0.0986023996 C1.63260442,0.104432525 7.97120107e-05,1.71104698 0,3.69094963 C0.00971346455,5.6835452 1.66294776,7.29154042 3.69355932,7.28346893"></path>
                    </g>
                </g>
                <path d="M17.0881051,56.1036098 C19.0593702,56.1036098 20.7457627,54.4970643 20.7457627,52.571303 C20.7457627,52.5228973 20.7457627,45.5694861 20.7457627,45.5210804 C20.7457627,43.5525392 19.1066695,41.9567213 17.0847458,41.9567213 C15.062822,41.9567213 13.4237288,43.5525392 13.4237288,45.5210804 L13.4237288,52.5856939 C13.4237288,54.4983726 15.1262461,56.104918 17.0840739,56.104918" id="Path"></path>
                <path d="M30.9299894,59.52 C32.8951236,59.52 34.5762712,57.9846686 34.5762712,56.0609271 C34.5762712,56.0125393 34.5534987,48.9832323 34.5534987,48.9348445 C34.5534987,46.9670312 32.9195034,45.3718033 30.903868,45.3718033 C28.8882326,45.3718033 27.2542373,46.9670312 27.2542373,48.9348445 C27.2542373,48.9976179 27.2796889,56.0112315 27.2796889,56.0726971 C27.2796889,57.9846686 28.9769112,59.52 30.9286498,59.52" id="Path"></path>
                <g id="Group" opacity="0.4" transform="translate(27.254237, 31.711475)">
                    <g id="Path">
                        <path d="M3.64009685,11.640658 C5.55820823,11.640658 7.19912833,10.1300874 7.19912833,8.23737071 C7.19912833,8.18976329 7.19912833,3.61430402 7.19912833,3.5666966 C7.19912833,1.6306188 5.60423219,0.0611176365 3.63682809,0.0611176365 C1.66942399,0.0611176365 0.074527845,1.6306188 0.074527845,3.5666966 L0.074527845,8.25023758 C0.074527845,10.1313741 1.73113801,11.6419447 3.63617433,11.6419447"></path>
                    </g>
                </g>
                <path d="M30.9152542,29.2721311 C32.9371781,29.2721311 34.5762712,27.7431469 34.5762712,25.8570492 C34.5762712,23.9709515 32.9371781,22.4419672 30.9152542,22.4419672 C28.8933304,22.4419672 27.2542373,23.9709515 27.2542373,25.8570492 C27.2542373,27.7431469 28.8933304,29.2721311 30.9152542,29.2721311" id="Path"></path>
                <g id="Group" opacity="0.4" transform="translate(40.677966, 35.126557)">
                    <g id="Path">
                        <path d="M3.63838521,20.8998527 C5.59137134,20.8998527 7.26212635,19.3888959 7.26212635,17.4956954 C7.26212635,17.4480758 7.26212635,3.62809808 7.26212635,3.57919147 C7.26212635,1.64261877 5.63823209,0.0727164035 3.63505701,0.0727164035 C1.63188193,0.0727164035 0.00798767334,1.64261877 0.00798767334,3.57919147 L0.00798767334,17.5085655 C0.00798767334,19.3901829 1.69471803,20.9011397 3.63439137,20.9011397"></path>
                    </g>
                </g>
                <g id="Group" opacity="0.4" transform="translate(40.677966, 18.539016)">
                    <g id="Path">
                        <path d="M3.63838521,14.0832967 C5.59137134,14.0832967 7.26212635,12.5594451 7.26212635,10.6500875 C7.26212635,10.6020615 7.26212635,3.63180316 7.26212635,3.58247917 C7.26212635,1.62937928 5.63823209,0.0460789893 3.63505701,0.0460789893 C1.63188193,0.0460789893 0.00798767334,1.62937928 0.00798767334,3.58247917 L0.00798767334,10.6617695 C0.00798767334,12.5594451 1.69471803,14.0832967 3.63439137,14.0832967"></path>
                    </g>
                </g>
                <path d="M44.3423424,16.0996721 C46.3136075,16.0996721 48,14.6019095 48,12.7252411 C48,12.6780373 48,3.5243349 48,3.47585536 C48,1.55619345 46.3609069,0 44.3389831,0 C42.3170592,0 40.6779661,1.55619345 40.6779661,3.47585536 L40.6779661,12.7367231 C40.6779661,14.6019095 42.3804834,16.0996721 44.3383112,16.0996721" id="Path"></path>
            </g>
        </g>
    </g>
</svg>