<svg width="12px" height="16px" viewBox="0 0 12 16" version="1.1" xmlns="http://www.w3.org/2000/svg" xmlns:xlink="http://www.w3.org/1999/xlink">
  <title>icon/action/swap_vert_24px</title>
  <defs>
    <path d="M9.33333333,12.175 L9.33333333,6.33333333 L7.66666667,6.33333333 L7.66666667,12.175 L5.16666667,12.175 L8.5,15.5 L11.8333333,12.175 L9.33333333,12.175 L9.33333333,12.175 Z M3.5,0.5 L0.166666667,3.825 L2.66666667,3.825 L2.66666667,9.66666667 L4.33333333,9.66666667 L4.33333333,3.825 L6.83333333,3.825 L3.5,0.5 Z M9.33333333,12.175 L9.33333333,6.33333333 L7.66666667,6.33333333 L7.66666667,12.175 L5.16666667,12.175 L8.5,15.5 L11.8333333,12.175 L9.33333333,12.175 L9.33333333,12.175 Z M3.5,0.5 L0.166666667,3.825 L2.66666667,3.825 L2.66666667,9.66666667 L4.33333333,9.66666667 L4.33333333,3.825 L6.83333333,3.825 L3.5,0.5 Z" id="path-1"></path>
  </defs>
  <g id="Symbols" stroke="none" stroke-width="1" fill="none" fill-rule="evenodd">
    <g id="My-****/Header/Overview" transform="translate(-394.000000, -32.000000)">
      <g id="icon/action/swap_vert_24px" transform="translate(394.000000, 32.000000)">
        <mask id="mask-2" fill="white">
          <use xlink:href="#path-1"></use>
        </mask>
        <use fill="#FFFFFF" fill-rule="nonzero" xlink:href="#path-1"></use>
      </g>
    </g>
  </g>
</svg>
