<?xml version="1.0" encoding="UTF-8"?>
<svg width="16px" height="18px" viewBox="0 0 16 18" version="1.1" xmlns="http://www.w3.org/2000/svg" xmlns:xlink="http://www.w3.org/1999/xlink">
    <!-- Generator: sketchtool 59 (101010) - https://sketch.com -->
    <title>BB5CB9B7-820A-4DC5-B3C0-918DE0AB3A9C_outlined</title>
    <desc>Created with sketchtool.</desc>
    <defs>
        <path d="M5.83333333,13.3333333 L11.6666667,13.3333333 L11.6666667,15 L5.83333333,15 L5.83333333,13.3333333 Z M5.83333333,10 L14.1666667,10 L14.1666667,11.6666667 L5.83333333,11.6666667 L5.83333333,10 Z M5.83333333,6.66666667 L14.1666667,6.66666667 L14.1666667,8.33333333 L5.83333333,8.33333333 L5.83333333,6.66666667 Z M15.8333333,3.33333333 L12.35,3.33333333 C12,2.36666667 11.0833333,1.66666667 10,1.66666667 C8.91666667,1.66666667 8,2.36666667 7.65,3.33333333 L4.16666667,3.33333333 C4.05,3.33333333 3.94166667,3.34166667 3.83333333,3.36666667 C3.50833333,3.43333333 3.21666667,3.6 2.99166667,3.825 C2.84166667,3.975 2.71666667,4.15833333 2.63333333,4.35833333 C2.55,4.55 2.5,4.76666667 2.5,5 L2.5,16.6666667 C2.5,16.8916667 2.55,17.1166667 2.63333333,17.3166667 C2.71666667,17.5166667 2.84166667,17.6916667 2.99166667,17.85 C3.21666667,18.075 3.50833333,18.2416667 3.83333333,18.3083333 C3.94166667,18.325 4.05,18.3333333 4.16666667,18.3333333 L15.8333333,18.3333333 C16.75,18.3333333 17.5,17.5833333 17.5,16.6666667 L17.5,5 C17.5,4.08333333 16.75,3.33333333 15.8333333,3.33333333 Z M10,3.125 C10.3416667,3.125 10.625,3.40833333 10.625,3.75 C10.625,4.09166667 10.3416667,4.375 10,4.375 C9.65833333,4.375 9.375,4.09166667 9.375,3.75 C9.375,3.40833333 9.65833333,3.125 10,3.125 Z M15.8333333,16.6666667 L4.16666667,16.6666667 L4.16666667,5 L15.8333333,5 L15.8333333,16.6666667 Z" id="path-1"></path>
    </defs>
    <g id="04-My****" stroke="none" stroke-width="1" fill="none" fill-rule="evenodd">
        <g id="My-****---Activity---Orders" transform="translate(-679.000000, -31.000000)">
            <g id="My-****-/-Header/-Orders">
                <g id="Group-5">
                    <g id="icon/action/list_24px-icon/action/assignment_24px" transform="translate(677.000000, 30.000000)">
                        <mask id="mask-2" fill="white">
                            <use xlink:href="#path-1"></use>
                        </mask>
                        <g id="icon/action/assignment_24px" fill-rule="nonzero"></g>
                        <g id="↳-Color-✱-/-Color-/-Icons-/-White-/-Active" mask="url(#mask-2)" fill="#FFFFFF">
                            <rect id="Rectangle-13" x="0" y="0" width="20" height="20"></rect>
                        </g>
                    </g>
                </g>
            </g>
        </g>
    </g>
</svg>