<?xml version="1.0" encoding="UTF-8"?>
<svg width="16px" height="16px" viewBox="0 0 16 16" version="1.1" xmlns="http://www.w3.org/2000/svg" xmlns:xlink="http://www.w3.org/1999/xlink">
    <!-- Generator: sketchtool 59 (101010) - https://sketch.com -->
    <title>5EAF40C0-3CB4-44CE-AE70-93D969EFCDE4_outlined</title>
    <desc>Created with sketchtool.</desc>
    <defs>
        <path d="M15.8333333,2.5 L4.16666667,2.5 C3.25,2.5 2.5,3.25 2.5,4.16666667 L2.5,15.8333333 C2.5,16.75 3.25,17.5 4.16666667,17.5 L15.8333333,17.5 C16.75,17.5 17.5,16.75 17.5,15.8333333 L17.5,4.16666667 C17.5,3.25 16.75,2.5 15.8333333,2.5 Z M15.8333333,15.8333333 L4.16666667,15.8333333 L4.16666667,4.16666667 L15.8333333,4.16666667 L15.8333333,15.8333333 Z M5.83333333,8.33333333 L7.5,8.33333333 L7.5,14.1666667 L5.83333333,14.1666667 L5.83333333,8.33333333 Z M9.16666667,5.83333333 L10.8333333,5.83333333 L10.8333333,14.1666667 L9.16666667,14.1666667 L9.16666667,5.83333333 Z M12.5,10.8333333 L14.1666667,10.8333333 L14.1666667,14.1666667 L12.5,14.1666667 L12.5,10.8333333 Z" id="path-1"></path>
    </defs>
    <g id="04-My****" stroke="none" stroke-width="1" fill="none" fill-rule="evenodd">
        <g id="My-****---Activity---Orders" transform="translate(-258.000000, -32.000000)">
            <g id="My-****-/-Header/-Orders">
                <g id="Group-5">
                    <g id="icon/action/assessment_24px" transform="translate(256.000000, 30.000000)">
                        <mask id="mask-2" fill="white">
                            <use xlink:href="#path-1"></use>
                        </mask>
                        <g fill-rule="nonzero"></g>
                        <g id="↳-Color-✱-/-Color-/-Icons-/-White-/-Active" mask="url(#mask-2)" fill="#FFFFFF">
                            <rect id="Rectangle-13" x="0" y="0" width="20" height="20"></rect>
                        </g>
                    </g>
                </g>
            </g>
        </g>
    </g>
</svg>