<svg width="12px" height="12px" viewBox="0 0 12 12" version="1.1" xmlns="http://www.w3.org/2000/svg" xmlns:xlink="http://www.w3.org/1999/xlink">
    <title>icon/content/create_24px</title>
    <defs>
        <path d="M0.999166667,9.5 L0.999166667,12 L3.49916667,12 L10.8725,4.62666667 L8.3725,2.12666667 L0.999166667,9.5 Z M2.94583333,10.6666667 L2.3325,10.6666667 L2.3325,10.0533333 L8.3725,4.01333333 L8.98583333,4.62666667 L2.94583333,10.6666667 Z M12.8058333,1.75333333 L11.2458333,0.193333333 C11.1125,0.06 10.9458333,0 10.7725,0 C10.5991667,0 10.4325,0.0666666667 10.3058333,0.193333333 L9.08583333,1.41333333 L11.5858333,3.91333333 L12.8058333,2.69333333 C13.0658333,2.43333333 13.0658333,2.01333333 12.8058333,1.75333333 Z" id="path-1"></path>
    </defs>
    <g id="Page-1" stroke="none" stroke-width="1" fill="none" fill-rule="evenodd">
        <g id="My-****---Overview---Mobile" transform="translate(-237.000000, -392.000000)">
            <g id="icon/content/create_24px" transform="translate(236.000000, 392.000000)">
                <mask id="mask-2" fill="white">
                    <use xlink:href="#path-1"></use>
                </mask>
                <g fill-rule="nonzero"></g>
                <g id="↳-Color" mask="url(#mask-2)" fill="#0083BB">
                    <g transform="translate(-1.000000, -2.000000)" id="Rectangle">
                        <rect x="0" y="0" width="16" height="16"></rect>
                    </g>
                </g>
            </g>
        </g>
    </g>
</svg>
