<?xml version="1.0" encoding="UTF-8"?>
<svg viewBox="0 0 20 14" version="1.1" xmlns="http://www.w3.org/2000/svg" xmlns:xlink="http://www.w3.org/1999/xlink">
    <title>icon/social/person_add_24px</title>
    <defs>
        <path d="M12.5,7 C14.3416667,7 15.8333333,5.50833333 15.8333333,3.66666667 C15.8333333,1.825 14.3416667,0.333333333 12.5,0.333333333 C10.6583333,0.333333333 9.16666667,1.825 9.16666667,3.66666667 C9.16666667,5.50833333 10.6583333,7 12.5,7 Z M12.5,2 C13.4166667,2 14.1666667,2.75 14.1666667,3.66666667 C14.1666667,4.58333333 13.4166667,5.33333333 12.5,5.33333333 C11.5833333,5.33333333 10.8333333,4.58333333 10.8333333,3.66666667 C10.8333333,2.75 11.5833333,2 12.5,2 Z M12.5,8.66666667 C10.275,8.66666667 5.83333333,9.78333333 5.83333333,12 L5.83333333,13.6666667 L19.1666667,13.6666667 L19.1666667,12 C19.1666667,9.78333333 14.725,8.66666667 12.5,8.66666667 Z M7.5,12 C7.68333333,11.4 10.2583333,10.3333333 12.5,10.3333333 C14.75,10.3333333 17.3333333,11.4083333 17.5,12 L7.5,12 Z M5,9.5 L5,7 L7.5,7 L7.5,5.33333333 L5,5.33333333 L5,2.83333333 L3.33333333,2.83333333 L3.33333333,5.33333333 L0.833333333,5.33333333 L0.833333333,7 L3.33333333,7 L3.33333333,9.5 L5,9.5 Z" id="path-1"></path>
    </defs>
    <g id="Page-1" stroke="none" stroke-width="1" fill="none" fill-rule="evenodd">
        <g id="My-****---New-tax-exemption-order" transform="translate(-129.000000, -402.000000)">
            <g id="icon/social/person_add_24px" transform="translate(129.000000, 402.000000)">
                <mask id="mask-2" fill="white">
                    <use xlink:href="#path-1"></use>
                </mask>
                <g fill-rule="nonzero"></g>
                <g id="✱-/-Color-/-Icons-/-Primary-or-Secondary" mask="url(#mask-2)">
                    <g transform="translate(0.000000, -3.000000)" id="✱-/-Color-/-Primary-/-Main">
                        <g>
                            <g id="✱-/-Color-/-Primary-/-600" fill="#0C95CE">
                                <rect id="Rectangle-13" x="0" y="0" width="20" height="20"></rect>
                            </g>
                        </g>
                    </g>
                </g>
            </g>
        </g>
    </g>
</svg>
