<?xml version="1.0" encoding="UTF-8"?>
<svg width="16px" height="11px" viewBox="0 0 16 11" version="1.1" xmlns="http://www.w3.org/2000/svg" xmlns:xlink="http://www.w3.org/1999/xlink">
    <title>np_eye_888692_000000</title>
    <g id="Page-1" stroke="none" stroke-width="1" fill="none" fill-rule="evenodd">
        <g id="My-****---Account-settings---Password" transform="translate(-366.000000, -355.000000)" fill="#D9DCE1" fill-rule="nonzero">
            <g id="np_eye_888692_000000" transform="translate(366.000000, 355.000000)">
                <path d="M8,0.0190144928 C3.37066667,0.0190144928 0.129333333,5.33333333 0.129333333,5.33333333 C0.129333333,5.33333333 2.49044444,10.6476522 8,10.6476522 C13.5555556,10.6476522 15.8706667,5.33333333 15.8706667,5.33333333 C15.8706667,5.33333333 12.6762222,0.0190144928 8,0.0190144928 Z M8,8.71466667 C6.19444444,8.71466667 4.75955556,7.2173913 4.75955556,5.33333333 C4.75955556,3.44927536 6.19444444,1.952 8,1.952 C9.80555556,1.952 11.2404444,3.44927536 11.2404444,5.33333333 C11.2404444,7.2173913 9.80555556,8.71466667 8,8.71466667 L8,8.71466667 Z" id="icon-view"></path>
                <path d="M9.38888889,5.33333333 C9.38888889,6.13405217 8.76735556,6.7826087 8,6.7826087 C7.23264444,6.7826087 6.61111111,6.13405217 6.61111111,5.33333333 C6.61111111,4.53261449 7.23264444,3.88405797 8,3.88405797 C8.76735556,3.88405797 9.38888889,4.53261449 9.38888889,5.33333333" id="Path"></path>
            </g>
        </g>
    </g>
</svg>
