<?xml version="1.0" encoding="UTF-8"?>
<svg width="16px" height="11px" viewBox="0 0 16 11" version="1.1" xmlns="http://www.w3.org/2000/svg" xmlns:xlink="http://www.w3.org/1999/xlink">
    <!-- Generator: Sketch 59.1 (86144) - https://sketch.com -->
    <title>icon/social/person_add_24px</title>
    <desc>Created with Sketch.</desc>
    <defs>
        <path d="M10,5.6 C11.4733333,5.6 12.6666667,4.40666667 12.6666667,2.93333333 C12.6666667,1.46 11.4733333,0.266666667 10,0.266666667 C8.52666667,0.266666667 7.33333333,1.46 7.33333333,2.93333333 C7.33333333,4.40666667 8.52666667,5.6 10,5.6 Z M10,1.6 C10.7333333,1.6 11.3333333,2.2 11.3333333,2.93333333 C11.3333333,3.66666667 10.7333333,4.26666667 10,4.26666667 C9.26666667,4.26666667 8.66666667,3.66666667 8.66666667,2.93333333 C8.66666667,2.2 9.26666667,1.6 10,1.6 Z M10,6.93333333 C8.22,6.93333333 4.66666667,7.82666667 4.66666667,9.6 L4.66666667,10.9333333 L15.3333333,10.9333333 L15.3333333,9.6 C15.3333333,7.82666667 11.78,6.93333333 10,6.93333333 Z M6,9.6 C6.14666667,9.12 8.20666667,8.26666667 10,8.26666667 C11.8,8.26666667 13.8666667,9.12666667 14,9.6 L6,9.6 Z M4,7.6 L4,5.6 L6,5.6 L6,4.26666667 L4,4.26666667 L4,2.26666667 L2.66666667,2.26666667 L2.66666667,4.26666667 L0.666666667,4.26666667 L0.666666667,5.6 L2.66666667,5.6 L2.66666667,7.6 L4,7.6 Z" id="path-1"></path>
    </defs>
    <g id="Page-1" stroke="none" stroke-width="1" fill="none" fill-rule="evenodd">
        <g id="My-****---User-profile-menu" transform="translate(-67.000000, -292.000000)">
            <g id="icon/social/person_add_24px" transform="translate(67.000000, 292.000000)">
                <mask id="mask-2" fill="white">
                    <use xlink:href="#path-1"></use>
                </mask>
                <g fill-rule="nonzero"></g>
                <g id="↳-Color" mask="url(#mask-2)" fill="#8992A1">
                    <g transform="translate(0.000000, -2.400000)" id="Rectangle">
                        <rect x="0" y="0" width="16" height="16"></rect>
                    </g>
                </g>
            </g>
        </g>
    </g>
</svg>