<?xml version="1.0" encoding="UTF-8"?>
<svg width="16px" height="16px" viewBox="0 0 16 16" version="1.1" xmlns="http://www.w3.org/2000/svg" xmlns:xlink="http://www.w3.org/1999/xlink">
    <!-- Generator: Sketch 59.1 (86144) - https://sketch.com -->
    <title>icon/action/exit_to_app_24px</title>
    <desc>Created with Sketch.</desc>
    <defs>
        <path d="M6.40833333,10.9916667 L7.58333333,12.1666667 L11.75,8 L7.58333333,3.83333333 L6.40833333,5.00833333 L8.55833333,7.16666667 L0.5,7.16666667 L0.5,8.83333333 L8.55833333,8.83333333 L6.40833333,10.9916667 Z M13.8333333,0.5 L2.16666667,0.5 C1.24166667,0.5 0.5,1.25 0.5,2.16666667 L0.5,5.5 L2.16666667,5.5 L2.16666667,2.16666667 L13.8333333,2.16666667 L13.8333333,13.8333333 L2.16666667,13.8333333 L2.16666667,10.5 L0.5,10.5 L0.5,13.8333333 C0.5,14.75 1.24166667,15.5 2.16666667,15.5 L13.8333333,15.5 C14.75,15.5 15.5,14.75 15.5,13.8333333 L15.5,2.16666667 C15.5,1.25 14.75,0.5 13.8333333,0.5 Z" id="path-1"></path>
    </defs>
    <g id="Page-1" stroke="none" stroke-width="1" fill="none" fill-rule="evenodd">
        <g id="My-****---Overview---Multiple-accounts" transform="translate(-993.000000, -367.000000)">
            <g id="icon/action/exit_to_app_24px" transform="translate(993.000000, 367.000000)">
                <mask id="mask-2" fill="white">
                    <use xlink:href="#path-1"></use>
                </mask>
                <g fill-rule="nonzero"></g>
                <g id="↳-Color" mask="url(#mask-2)" fill="#8992A1">
                    <g transform="translate(-2.000000, -2.000000)" id="Rectangle">
                        <rect x="0" y="0" width="20" height="20"></rect>
                    </g>
                </g>
            </g>
        </g>
    </g>
</svg>