<?xml version="1.0" encoding="UTF-8"?>
<svg width="18px" height="18px" viewBox="0 0 18 18" version="1.1" xmlns="http://www.w3.org/2000/svg" xmlns:xlink="http://www.w3.org/1999/xlink">
    <!-- Generator: Sketch 59.1 (86144) - https://sketch.com -->
    <title>icon/action/settings_24px</title>
    <desc>Created with Sketch.</desc>
    <defs>
        <path d="M15.1935073,9.81666667 C15.2268406,9.55 15.2518406,9.28333333 15.2518406,9 C15.2518406,8.71666667 15.2268406,8.45 15.1935073,8.18333333 L16.9518406,6.80833333 C17.110174,6.68333333 17.1518406,6.45833333 17.0518406,6.275 L15.385174,3.39166667 C15.310174,3.25833333 15.1685073,3.18333333 15.0185073,3.18333333 C14.9685073,3.18333333 14.9185073,3.19166667 14.8768406,3.20833333 L12.8018406,4.04166667 C12.3685073,3.70833333 11.9018406,3.43333333 11.3935073,3.225 L11.0768406,1.01666667 C11.0518406,0.816666667 10.8768406,0.666666667 10.6685073,0.666666667 L7.33517395,0.666666667 C7.12684062,0.666666667 6.95184062,0.816666667 6.92684062,1.01666667 L6.61017395,3.225 C6.10184062,3.43333333 5.63517395,3.71666667 5.20184062,4.04166667 L3.12684062,3.20833333 C3.07684062,3.19166667 3.02684062,3.18333333 2.97684062,3.18333333 C2.83517395,3.18333333 2.69350729,3.25833333 2.61850729,3.39166667 L0.951840621,6.275 C0.843507287,6.45833333 0.893507287,6.68333333 1.05184062,6.80833333 L2.81017395,8.18333333 C2.77684062,8.45 2.75184062,8.725 2.75184062,9 C2.75184062,9.275 2.77684062,9.55 2.81017395,9.81666667 L1.05184062,11.1916667 C0.893507287,11.3166667 0.851840621,11.5416667 0.951840621,11.725 L2.61850729,14.6083333 C2.69350729,14.7416667 2.83517395,14.8166667 2.98517395,14.8166667 C3.03517395,14.8166667 3.08517395,14.8083333 3.12684062,14.7916667 L5.20184062,13.9583333 C5.63517395,14.2916667 6.10184062,14.5666667 6.61017395,14.775 L6.92684062,16.9833333 C6.95184062,17.1833333 7.12684062,17.3333333 7.33517395,17.3333333 L10.6685073,17.3333333 C10.8768406,17.3333333 11.0518406,17.1833333 11.0768406,16.9833333 L11.3935073,14.775 C11.9018406,14.5666667 12.3685073,14.2833333 12.8018406,13.9583333 L14.8768406,14.7916667 C14.9268406,14.8083333 14.9768406,14.8166667 15.0268406,14.8166667 C15.1685073,14.8166667 15.310174,14.7416667 15.385174,14.6083333 L17.0518406,11.725 C17.1518406,11.5416667 17.110174,11.3166667 16.9518406,11.1916667 L15.1935073,9.81666667 Z M13.5435073,8.39166667 C13.5768406,8.65 13.585174,8.825 13.585174,9 C13.585174,9.175 13.5685073,9.35833333 13.5435073,9.60833333 L13.4268406,10.55 L14.1685073,11.1333333 L15.0685073,11.8333333 L14.485174,12.8416667 L13.4268406,12.4166667 L12.560174,12.0666667 L11.810174,12.6333333 C11.4518406,12.9 11.110174,13.1 10.7685073,13.2416667 L9.88517395,13.6 L9.75184062,14.5416667 L9.58517395,15.6666667 L8.41850729,15.6666667 L8.26017395,14.5416667 L8.12684062,13.6 L7.24350729,13.2416667 C6.88517395,13.0916667 6.55184062,12.9 6.21850729,12.65 L5.46017395,12.0666667 L4.57684062,12.425 L3.51850729,12.85 L2.93517395,11.8416667 L3.83517395,11.1416667 L4.57684062,10.5583333 L4.46017395,9.61666667 C4.43517395,9.35833333 4.41850729,9.16666667 4.41850729,9 C4.41850729,8.83333333 4.43517395,8.64166667 4.46017395,8.39166667 L4.57684062,7.45 L3.83517395,6.86666667 L2.93517395,6.16666667 L3.51850729,5.15833333 L4.57684062,5.58333333 L5.44350729,5.93333333 L6.19350729,5.36666667 C6.55184062,5.1 6.89350729,4.9 7.23517395,4.75833333 L8.11850729,4.4 L8.25184062,3.45833333 L8.41850729,2.33333333 L9.57684062,2.33333333 L9.73517395,3.45833333 L9.86850729,4.4 L10.7518406,4.75833333 C11.110174,4.90833333 11.4435073,5.1 11.7768406,5.35 L12.535174,5.93333333 L13.4185073,5.575 L14.4768406,5.15 L15.060174,6.15833333 L14.1685073,6.86666667 L13.4268406,7.45 L13.5435073,8.39166667 Z M9.00184062,5.66666667 C7.16017395,5.66666667 5.66850729,7.15833333 5.66850729,9 C5.66850729,10.8416667 7.16017395,12.3333333 9.00184062,12.3333333 C10.8435073,12.3333333 12.335174,10.8416667 12.335174,9 C12.335174,7.15833333 10.8435073,5.66666667 9.00184062,5.66666667 Z M9.00184062,10.6666667 C8.08517395,10.6666667 7.33517395,9.91666667 7.33517395,9 C7.33517395,8.08333333 8.08517395,7.33333333 9.00184062,7.33333333 C9.91850729,7.33333333 10.6685073,8.08333333 10.6685073,9 C10.6685073,9.91666667 9.91850729,10.6666667 9.00184062,10.6666667 Z" id="path-1"></path>
    </defs>
    <g id="Page-1" stroke="none" stroke-width="1" fill="none" fill-rule="evenodd">
        <g id="My-****---Overview---Multiple-accounts" transform="translate(-992.000000, -286.000000)">
            <g id="icon/action/settings_24px" transform="translate(992.000000, 286.000000)">
                <mask id="mask-2" fill="white">
                    <use xlink:href="#path-1"></use>
                </mask>
                <g fill-rule="nonzero"></g>
                <g id="↳-Color" mask="url(#mask-2)" fill="#8992A1">
                    <g transform="translate(-1.000000, -1.000000)" id="Rectangle">
                        <rect x="0" y="0" width="20" height="20"></rect>
                    </g>
                </g>
            </g>
        </g>
    </g>
</svg>