<?xml version="1.0" encoding="UTF-8"?>
<svg width="47px" height="46px" viewBox="0 0 47 46" version="1.1" xmlns="http://www.w3.org/2000/svg" xmlns:xlink="http://www.w3.org/1999/xlink">
    <!-- Generator: Sketch 59.1 (86144) - https://sketch.com -->
    <title>np_euro_1878626_000000</title>
    <desc>Created with Sketch.</desc>
    <g id="Page-1" stroke="none" stroke-width="1" fill="none" fill-rule="evenodd">
        <g id="My-****---Withdraw" transform="translate(-145.000000, -287.000000)" fill-rule="nonzero">
            <g id="np_euro_1878626_000000" transform="translate(145.000000, 287.000000)">
                <polygon id="Path" fill="#B3DAEB" points="45.9334915 43.6644319 2.10318511 43.6644319 2.10318511 3.19874681 3.29041915 3.19874681 3.29041915 42.4771979 45.9334915 42.4771979"></polygon>
                <path d="M10.1983404,34.3125894 C10.08008,34.3125894 9.96181966,34.277807 9.85747366,34.2059223 C9.58849391,34.018096 9.52356409,33.6470853 9.71139045,33.3781234 L15.6359851,24.9167064 C15.8238115,24.6477266 16.1948221,24.5827968 16.4637841,24.7706231 C16.7327638,24.9584495 16.7976936,25.3294601 16.6098673,25.5984221 L10.6852726,34.0598391 C10.5693333,34.2244729 10.386143,34.3125894 10.1983226,34.3125894 L10.1983404,34.3125894 Z" id="Path" fill="#B3DAEB"></path>
                <path d="M25.1663936,31.669214 C25.0133532,31.669214 24.8603128,31.6112425 24.7443675,31.4929857 L19.4087597,26.0924361 C19.1791961,25.8582364 19.1815171,25.4826133 19.4133976,25.2530023 C19.6475973,25.0234387 20.0209052,25.0234387 20.2528314,25.2576396 L25.5884393,30.6581892 C25.8180029,30.8923889 25.8156818,31.268012 25.5838014,31.497623 C25.467862,31.6135624 25.3171367,31.669214 25.1664174,31.669214 L25.1663936,31.669214 Z" id="Path" fill="#B3DAEB"></path>
                <path d="M29.3561426,31.9594915 C29.196145,31.9594915 29.0361474,31.8945617 28.917887,31.767029 C28.6952806,31.5258721 28.7115101,31.1502015 28.9526694,30.9275951 L35.1993013,25.1861907 C35.4404582,24.9635843 35.8161287,24.9798138 36.0387351,25.2209725 C36.2613415,25.4621312 36.245112,25.8377999 36.0039527,26.0604063 L29.7573208,31.8018108 C29.6436966,31.9084778 29.4999344,31.9594915 29.3561663,31.9594915 L29.3561426,31.9594915 Z" id="Path" fill="#B3DAEB"></path>
                <path d="M18.0797936,27.0455298 C16.5400698,27.0455298 15.2902685,25.793354 15.2902685,24.2560047 C15.2902685,22.7186553 16.5424443,21.4664796 18.0797936,21.4664796 C19.617143,21.4664796 20.8693187,22.7186553 20.8693187,24.2560047 C20.8693187,25.7957285 19.617143,27.0455298 18.0797936,27.0455298 Z M18.0797936,22.6537136 C17.1963134,22.6537136 16.4775026,23.3725245 16.4775026,24.2560047 C16.4775026,25.1394849 17.1963134,25.8582957 18.0797936,25.8582957 C18.9632738,25.8582957 19.6820847,25.1394849 19.6820847,24.2560047 C19.6820847,23.3725245 18.9632738,22.6537136 18.0797936,22.6537136 Z" id="Shape" fill="#B3DAEB"></path>
                <path d="M27.2161532,34.6539191 C25.6764294,34.6539191 24.4266281,33.4017434 24.4266281,31.864394 C24.4266281,30.3246702 25.6788038,29.0748689 27.2161532,29.0748689 C28.7535026,29.0748689 30.0056783,30.3270447 30.0056783,31.864394 C30.0056783,33.4017434 28.7558177,34.6539191 27.2161532,34.6539191 Z M27.2161532,30.262103 C26.332673,30.262103 25.6138621,30.9809138 25.6138621,31.864394 C25.6138621,32.7478743 26.332673,33.4666851 27.2161532,33.4666851 C28.0996334,33.4666851 28.8184443,32.7478743 28.8184443,31.864394 C28.8184443,30.9809138 28.0996334,30.262103 27.2161532,30.262103 Z" id="Shape" fill="#B3DAEB"></path>
                <path d="M36.7882277,26.5682617 C35.2508783,26.5682617 33.9987026,25.316086 33.9987026,23.7787366 C33.9987026,22.2390128 35.2508783,20.9892115 36.7882277,20.9892115 C38.325577,20.9892115 39.5777528,22.2413872 39.5777528,23.7787366 C39.5777528,25.316086 38.3278921,26.5682617 36.7882277,26.5682617 Z M36.7882277,22.1741304 C35.9047474,22.1741304 35.1859366,22.8929413 35.1859366,23.7764215 C35.1859366,24.6599017 35.9047474,25.3787126 36.7882277,25.3787126 C37.6717079,25.3787126 38.3905187,24.6599017 38.3905187,23.7764215 C38.3905187,22.8929413 37.6717079,22.1741304 36.7882277,22.1741304 Z" id="Shape" fill="#B3DAEB"></path>
                <path d="M8.84845532,38.2411468 C7.30873149,38.2411468 6.05893021,36.9889711 6.05893021,35.4516217 C6.05893021,33.9142723 7.31110596,32.6620966 8.84845532,32.6620966 C10.3858047,32.6620966 11.6379804,33.9142723 11.6379804,35.4516217 C11.6379804,36.9913455 10.3881198,38.2411468 8.84845532,38.2411468 Z M8.84845532,33.8493306 C7.96497511,33.8493306 7.24616426,34.5681415 7.24616426,35.4516217 C7.24616426,36.3351019 7.96497511,37.0539128 8.84845532,37.0539128 C9.73193553,37.0539128 10.4507464,36.3351019 10.4507464,35.4516217 C10.4507464,34.5681415 9.73193553,33.8493306 8.84845532,33.8493306 Z" id="Shape" fill="#B3DAEB"></path>
                <path d="M36.7205553,13.4618532 C34.6405806,13.4618532 32.9478223,11.7690332 32.9478223,9.68905851 C32.9478223,7.60908383 34.6405806,5.91632553 36.7205553,5.91632553 C36.9756266,5.91632553 37.2306979,5.94183266 37.4810974,5.9928487 L37.3025493,6.86475338 C37.1124079,6.82533365 36.9153092,6.80678312 36.7205256,6.80678312 C35.1321252,6.80678312 33.8382182,8.10069014 33.8382182,9.68909057 C33.8382182,11.277491 35.1321252,12.571398 36.7205256,12.571398 C36.9245815,12.571398 37.1309584,12.5505282 37.3303484,12.5064682 L37.5181748,13.3783729 C37.2561463,13.4340245 36.9894876,13.4618532 36.7204722,13.4618532 L36.7205553,13.4618532 Z" id="Path" fill="#B3DAEB"></path>
                <polygon id="Path" fill="#B3DAEB" points="32.4144574 8.56029574 36.5094651 8.56029574 36.5094651 9.45072128 32.4144574 9.45072128"></polygon>
                <polygon id="Path" fill="#B3DAEB" points="32.4144574 9.86565957 36.5094651 9.86565957 36.5094651 10.7560851 32.4144574 10.7560851"></polygon>
                <path d="M37.6493919,17.8940601 C32.7487866,17.8940601 28.7608403,13.9061138 28.7608403,9.00550851 C28.7608403,4.10490319 32.7487866,0.116956925 37.6493919,0.116956925 C42.5499972,0.116956925 46.5379435,4.10490319 46.5379435,9.00550851 C46.5379435,13.9061138 42.5499972,17.8940601 37.6493919,17.8940601 L37.6493919,17.8940601 Z" id="Path" fill="#E6F3F8"></path>
                <path d="M41.9281932,11.1997251 C41.2232748,12.0515178 40.1557139,12.6000248 38.9712216,12.6000248 C37.2966585,12.6000248 35.8768735,11.5229465 35.3483218,10.0247306 L41.203809,10.0247306 L41.203809,9.12397978 L35.1524894,9.12397978 C35.142545,9.00655866 35.1329825,8.87918926 35.1329825,8.76176814 C35.1329825,8.62484211 35.1429269,8.4974727 35.1524894,8.36015501 L41.1938216,8.36015501 L41.1938216,7.45940422 L35.3582113,7.45940422 C35.8967505,5.98067362 37.3065481,4.92357022 38.9711236,4.92357022 C40.1561056,4.92357022 41.213209,5.46210937 41.9185974,6.30438461 L42.349272,5.48204511 C41.4974793,4.60079922 40.2930316,4.05227262 38.9711628,4.05227262 C36.8269936,4.05227262 35.0155438,5.49154298 34.4475318,7.45985463 L32.9394264,7.45947207 L32.9394264,8.36022287 L34.2807805,8.36022287 C34.2708362,8.48759227 34.2612737,8.6245183 34.2612737,8.76183599 C34.2612737,8.87925711 34.271218,9.00662652 34.2807805,9.12404764 L32.9394264,9.12404764 L32.9394264,10.0247984 L34.4376423,10.0247984 C34.9956864,12.002608 36.8171041,13.4618532 38.9712607,13.4618532 C40.303117,13.4618532 41.5070947,12.9038092 42.3593574,12.0125954 L41.9281932,11.1997251 Z" id="Path" fill="#0083BB"></path>
                <polygon id="Path" fill="#B3DAEB" points="43.6700298 45.8673447 43.0972843 45.18795 45.6016358 43.0778196 43.104289 41.0766772 43.663126 40.3833326 47.0022218 43.0615545"></polygon>
                <polygon id="Path" fill="#B3DAEB" points="4.96916809 6.93912766 2.73152872 3.50730894 0.885735957 6.90903128 0.104298511 6.48236904 2.66195681 1.77053394 5.71581957 6.4522133"></polygon>
            </g>
        </g>
    </g>
</svg>