<svg xmlns="http://www.w3.org/2000/svg" width="392" height="201" viewBox="0 0 392 201">
    <path fill="#D9DCE1" fill-rule="nonzero" d="M0 35.721h4.45v4.463H0V35.72zm0 8.942h4.45v4.463H0v-4.463zm8.918-8.942h4.45v4.463h-4.45V35.72zm0 8.942h4.45v4.463h-4.45v-4.463zm0 8.926h4.45v4.462h-4.45V53.59zm8.901-17.867h4.45v4.462h-4.45v-4.462zm0 8.942h4.45v4.462h-4.45v-4.462zm8.901-8.942h4.467v4.462H26.72v-4.462zm0 8.942h4.467v4.462H26.72v-4.462zm-8.901 8.925h4.45v4.463h-4.45v-4.463zm17.819-17.867h4.45v4.462h-4.45v-4.462zm0 8.942h4.45v4.463h-4.45v-4.463zm0 8.926h4.45v4.462h-4.45V53.59zm8.9-17.868h4.468v4.463h-4.467v-4.463zm0 8.943h4.468v4.462h-4.467v-4.462zm0 8.925h4.468v4.462h-4.467V53.59zm0 8.942h4.468v4.463h-4.467v-4.463zm0 8.926h4.468v4.462h-4.467v-4.462zm8.919-53.602h4.45v4.48h-4.45v-4.48zm0 8.943h4.45v4.462h-4.45v-4.462zm0 8.925h4.45v4.462h-4.45v-4.462zm0 8.942h4.45v4.462h-4.45v-4.462zm0 8.925h4.45v4.463h-4.45V53.59zm0 8.943h4.45v4.462h-4.45v-4.462zm0 8.925h4.45v4.462h-4.45V71.46zm0 8.925h4.45v4.48h-4.45v-4.48zm0 8.942h4.45v4.463h-4.45v-4.463zm8.9-71.468h4.45v4.48h-4.45v-4.48zm8.919-8.925h4.45v4.462h-4.45V8.933zM62.358 26.8h4.45v4.462h-4.45V26.8zm0 8.925h4.45v4.462h-4.45v-4.462zm0 8.942h4.45v4.463h-4.45v-4.463zm0 8.926h4.45v4.462h-4.45v-4.462zm0 8.942h4.45v4.462h-4.45v-4.462zm0 8.925h4.45v4.463h-4.45V71.46zm0 8.925h4.45v4.48h-4.45v-4.48zm0 8.943h4.45v4.462h-4.45v-4.462zm0 8.925h4.45v4.48h-4.45v-4.48zm8.918-71.451h4.45v4.462h-4.45v-4.462zm0 8.925h4.45v4.463h-4.45v-4.463zm0 8.943h4.45v4.462h-4.45V44.67zm0 8.925h4.45v4.462h-4.45v-4.462zm0 8.942h4.45V67h-4.45v-4.463zm0 8.925h4.45v4.463h-4.45v-4.463zm0 8.926h4.45v4.48h-4.45v-4.48zm0 8.942h4.45v4.462h-4.45V89.33zm0 8.925h4.45v4.48h-4.45v-4.48zm0 8.943h4.45v4.462h-4.45v-4.462zm8.9-98.26h4.45v4.461h-4.45V8.937zm0 8.924h4.45v4.48h-4.45v-4.48zm0 8.943h4.45v4.462h-4.45v-4.462zm8.919 0h4.45v4.462h-4.45v-4.462zm8.9 0h4.45v4.462h-4.45v-4.462zM80.178 35.73h4.45v4.462h-4.45V35.73zm0 26.81h4.45v4.462h-4.45v-4.463zm0 8.925h4.45v4.462h-4.45v-4.462zm0 8.925h4.45v4.48h-4.45v-4.48zm0 8.942h4.45v4.463h-4.45v-4.463zm8.918-26.792h4.45v4.462h-4.45V62.54zm0 8.925h4.45v4.462h-4.45v-4.462zm0 8.925h4.45v4.48h-4.45v-4.48zm0 8.943h4.45v4.462h-4.45v-4.462zm0 26.792h4.45v4.48h-4.45v-4.48zm8.901 0h4.45v4.48h-4.45v-4.48zm8.918 0h4.45v4.48h-4.45v-4.48zm8.901 0h4.45v4.48h-4.45v-4.48zm-17.819 8.942h4.45v4.463h-4.45v-4.463zm8.918 0h4.45v4.463h-4.45v-4.463zm8.901 0h4.45v4.463h-4.45v-4.463zm8.901 0h4.468v4.463h-4.468v-4.463zm-26.72 8.926h4.451v4.462h-4.45v-4.462zm8.919 0h4.45v4.462h-4.45v-4.462zm8.9 0h4.451v4.462h-4.45v-4.462zm8.902 0h4.467v4.462h-4.467v-4.462zm8.918 0h4.45v4.462h-4.45v-4.462zm-35.638 8.942h4.45v4.462h-4.45v-4.462zm8.918 0h4.45v4.462h-4.45v-4.462zm8.901 0h4.45v4.462h-4.45v-4.462zm8.901 0h4.468v4.462h-4.468v-4.462zm-17.801 8.925h4.45v4.463h-4.45v-4.463zm8.9 0h4.451v4.463h-4.45v-4.463zm8.902 0h4.467v4.463h-4.467v-4.463zm-17.802 8.942h4.45v4.463h-4.45v-4.463zm8.901 0h4.45v4.463h-4.45v-4.463zm-8.9 8.926h4.45v4.462h-4.45v-4.462zm0 8.925h4.45v4.48h-4.45v-4.48zm0 8.942h4.45v4.463h-4.45v-4.463zm8.9 8.926h4.45V201h-4.45v-4.48zm0-26.793h4.45v4.463h-4.45v-4.463zm8.901-8.925h4.467v4.462h-4.467v-4.462zm8.918-17.867h4.45v4.462h-4.45v-4.462zM98 53.6h4.45v4.462h-4.45V53.6zm0 8.942h4.45v4.463h-4.45v-4.463zm0-26.809h4.45v4.462h-4.45v-4.462zm0 8.942h4.45v4.463h-4.45v-4.463zm0 26.793h4.45v4.462h-4.45v-4.462zm8.918-17.867h4.45v4.462h-4.45V53.6zm0 8.942h4.45v4.462h-4.45v-4.462zm0-26.81h4.45v4.463h-4.45v-4.463zm0 8.943h4.45v4.462h-4.45v-4.462zm0 26.792h4.45v4.463h-4.45v-4.463zm8.9-8.925h4.45v4.462h-4.45v-4.462zm0 8.925h4.45v4.463h-4.45v-4.463zM98 80.393h4.45v4.48H98v-4.48zm-17.819 26.81h4.45v4.462h-4.45v-4.462zM89.098 0h4.45v4.48h-4.45V0zm0 8.942h4.45v4.463h-4.45V8.942zM98 0h4.45v4.48H98V0zm0 8.942h4.45v4.463H98V8.942zm8.918 0h4.45v4.463h-4.45V8.942zm8.901 0h4.45v4.463h-4.45V8.942zm0 8.926h4.45v4.479h-4.45v-4.48zm8.901-8.926h4.468v4.463h-4.468V8.942zm8.918 0h4.45v4.463h-4.45V8.942zm8.901 0h4.468v4.463h-4.468V8.942zm8.918 0h4.45v4.463h-4.45V8.942zm8.901 0h4.45v4.463h-4.45V8.942zm40.088 0h4.45v4.463h-4.45V8.942zm8.918 0h4.45v4.463h-4.45V8.942zm-84.644 8.926h4.467v4.479h-4.467v-4.48zm8.918 0h4.45v4.479h-4.45v-4.48zm8.9 0h4.468v4.479h-4.467v-4.48zm8.919 0h4.45v4.479h-4.45v-4.48zm-26.737 8.942h4.467v4.462h-4.467V26.81zm8.918 0h4.45v4.462h-4.45V26.81zm-8.918 8.925h4.467v4.463h-4.467v-4.463zm8.918 0h4.45v4.463h-4.45v-4.463zm0 8.942h4.45v4.463h-4.45v-4.463zm8.901-17.867h4.467v4.463h-4.467V26.81zm8.918 0h4.45v4.463h-4.45V26.81zm8.901-8.942h4.45v4.48h-4.45v-4.48zm13.368 44.677h4.45v4.462h-4.45v-4.462zm0 35.717h4.45v4.48h-4.45v-4.48zm0 8.943h4.45v4.462h-4.45v-4.462zm0 8.925h4.45v4.48h-4.45v-4.48zm8.901-17.867h4.468v4.48h-4.468v-4.48zm0 8.942h4.468v4.462h-4.468v-4.462zm0 8.925h4.468v4.48h-4.468v-4.48zm8.918-17.867h4.45v4.48h-4.45v-4.48zm0 8.942h4.45v4.463h-4.45v-4.463zm0 8.926h4.45v4.48h-4.45v-4.48zm8.901-17.867h4.45v4.479h-4.45v-4.48zm-17.818-8.926h4.467v4.463h-4.467v-4.463zm8.918 0h4.45v4.463h-4.45v-4.463zm0-17.867h4.45v4.463h-4.45V71.47zm0-8.925h4.45v4.462h-4.45v-4.462zm8.9 26.792h4.451v4.463h-4.45v-4.463zm0 17.867h4.451v4.463h-4.45v-4.463zm0 8.926h4.451v4.48h-4.45v-4.48zm0 17.867h4.451v4.462h-4.45v-4.462zm0-8.925h4.451v4.462h-4.45v-4.462zm0 17.867h4.451v4.462h-4.45v-4.462zm8.919-44.677h4.45v4.48h-4.45v-4.48zm0-8.925h4.45V93.8h-4.45v-4.462zm0 17.867h4.45v4.462h-4.45v-4.462zm0 8.925h4.45v4.48h-4.45v-4.48zm0 17.867h4.45v4.463h-4.45v-4.463zm0-8.925h4.45v4.463h-4.45v-4.463zm0 17.867h4.45v4.463h-4.45v-4.463zm8.9-44.676h4.451v4.48h-4.45v-4.48zm0 8.942h4.451v4.462h-4.45v-4.462zm0 8.925h4.451v4.48h-4.45v-4.48zm0 17.867h4.451v4.463h-4.45v-4.463zm0-8.925h4.451v4.463h-4.45v-4.463zm8.919-8.942h4.45v4.48h-4.45v-4.48zm8.9 0h4.451v4.48h-4.45v-4.48zm-8.9 17.867h4.45v4.462h-4.45v-4.462zm0-8.925h4.45v4.462h-4.45v-4.462zm-8.918 17.867h4.45v4.462h-4.45v-4.462zm17.818 8.925h4.45v4.462h-4.45v-4.462zm0 8.942h4.45v4.463h-4.45v-4.463zm-26.72-8.942h4.451v4.462h-4.45v-4.462zm0 8.942h4.451v4.463h-4.45v-4.463zm-8.917-125.07h4.45V40.2h-4.45v-4.463zm0 8.943h4.45v4.462h-4.45V44.68zm0 17.867h4.45v4.462h-4.45v-4.462zm0-8.942h4.45v4.462h-4.45v-4.462zm0 17.867h4.45v4.462h-4.45v-4.462zm8.918-35.735h4.45v4.462h-4.45v-4.462zm0 8.942h4.45v4.463h-4.45v-4.463zm0 17.867h4.45v4.463h-4.45v-4.463zm0-8.942h4.45v4.463h-4.45v-4.463zm8.9-17.867h4.451v4.462h-4.45v-4.462zm0 8.942h4.451v4.463h-4.45v-4.463zm0 17.867h4.451v4.463h-4.45v-4.463zm0-8.942h4.451v4.463h-4.45v-4.463zm8.919-17.867h4.45v4.462h-4.45v-4.462zm0 8.942h4.45v4.463h-4.45v-4.463zm0 17.867h4.45v4.463h-4.45v-4.463zm8.9 8.926h4.451v4.462h-4.45v-4.462zm-8.9-17.867h4.45v4.462h-4.45v-4.462zm8.9-17.868h4.451V40.2h-4.45v-4.463zm0 8.943h4.451v4.462h-4.45V44.68zm0 17.867h4.451v4.462h-4.45v-4.462zm0-8.942h4.451v4.462h-4.45v-4.462zm8.902-17.868h4.467V40.2h-4.467v-4.463zm0 8.943h4.467v4.462h-4.467V44.68zm0 17.867h4.467v4.462h-4.467v-4.462zm0-8.942h4.467v4.462h-4.467v-4.462zm8.918-17.868h4.45V40.2h-4.45v-4.463zm0 8.943h4.45v4.462h-4.45V44.68zm0 17.867h4.45v4.462h-4.45v-4.462zm0-8.942h4.45v4.462h-4.45v-4.462zm8.9-17.868h4.468V40.2h-4.467v-4.463zm0 8.943h4.468v4.462h-4.467V44.68zm0 17.867h4.468v4.462h-4.467v-4.462zm0-8.942h4.468v4.462h-4.467v-4.462zm8.919-17.868h4.45V40.2h-4.45v-4.463zm0 8.943h4.45v4.462h-4.45V44.68zm0 17.867h4.45v4.462h-4.45v-4.462zm0-8.942h4.45v4.462h-4.45v-4.462zm8.9-17.868h4.45V40.2h-4.45v-4.463zm0 8.943h4.45v4.462h-4.45V44.68zm0 17.867h4.45v4.462h-4.45v-4.462zm0-8.942h4.45v4.462h-4.45v-4.462zm8.919-17.868h4.45V40.2h-4.45v-4.463zm0 8.943h4.45v4.462h-4.45V44.68zm0 17.867h4.45v4.462h-4.45v-4.462zm0-8.942h4.45v4.462h-4.45v-4.462zm8.9-17.868h4.45V40.2h-4.45v-4.463zm0 8.943h4.45v4.462h-4.45V44.68zm0 17.867h4.45v4.462h-4.45v-4.462zm0-8.942h4.45v4.462h-4.45v-4.462zm8.919-17.868h4.45V40.2h-4.45v-4.463zm0 8.943h4.45v4.462h-4.45V44.68zm0 17.867h4.45v4.462h-4.45v-4.462zm-80.175 26.792h4.45v4.463h-4.45v-4.463zm8.9 0h4.451v4.463h-4.45v-4.463zm8.902 0h4.467v4.463h-4.467v-4.463zm8.918 0h4.45v4.463h-4.45v-4.463zm8.9 0h4.468v4.463h-4.467v-4.463zm8.919 0h4.45v4.463h-4.45v-4.463zm8.9 0h4.451v4.463h-4.45v-4.463zm8.919 0h4.45v4.463h-4.45v-4.463zm8.9 0h4.451v4.463h-4.45v-4.463zm8.919 0h4.45v4.463h-4.45v-4.463zm-71.274 8.926h4.45v4.479h-4.45v-4.48zm8.9 0h4.468v4.479h-4.467v-4.48zm8.919 0h4.45v4.479h-4.45v-4.48zm8.9 0h4.468v4.479h-4.467v-4.48zm8.919 0h4.45v4.479h-4.45v-4.48zm0 8.942h4.45v4.462h-4.45v-4.462zm0 8.925h4.45v4.48h-4.45v-4.48zm8.9-17.867h4.45v4.48h-4.45v-4.48zm8.919 0h4.45v4.48h-4.45v-4.48zm8.9 0h4.45v4.48h-4.45v-4.48zm-8.9 8.942h4.45v4.463h-4.45v-4.463zm8.9 0h4.45v4.463h-4.45v-4.463zm0 8.926h4.45v4.479h-4.45v-4.48zm0 8.942h4.45v4.462h-4.45v-4.462zm8.919 0h4.45v4.462h-4.45v-4.462zm8.9 0h4.45v4.462h-4.45v-4.462zm-8.9 8.925h4.45v4.463h-4.45v-4.463zm8.9 0h4.45v4.463h-4.45v-4.463zm22.27 0h4.45v4.463h-4.45v-4.463zm8.918 0h4.45v4.463h-4.45v-4.463zm-40.088-35.735h4.45v4.48h-4.45v-4.48zm0-44.659h4.45v4.463h-4.45v-4.463zm8.901-17.867h4.45v4.463h-4.45v-4.463zm0 8.943h4.45v4.462h-4.45V44.68zm0 17.867h4.45v4.462h-4.45v-4.462zm0-8.943h4.45v4.463h-4.45v-4.463zm8.918-17.867h4.45v4.463h-4.45v-4.463zm0 8.943h4.45v4.462h-4.45V44.68zm0 17.867h4.45v4.462h-4.45v-4.462zm-71.274 8.925h4.45v4.462h-4.45v-4.462zm8.9 0h4.468v4.462h-4.467v-4.462zm8.919 0h4.45v4.462h-4.45v-4.462zm8.9 0h4.451v4.462h-4.45v-4.462zm8.919 0h4.45v4.462h-4.45v-4.462zm8.9 0h4.451v4.462h-4.45v-4.462zm8.919 0h4.45v4.462h-4.45v-4.462zm8.9 0h4.451v4.462h-4.45v-4.462zm8.919 0h4.45v4.462h-4.45v-4.462zm-17.819 80.393h4.45v4.463h-4.45v-4.463zm8.901 0h4.45v4.463h-4.45v-4.463zm8.918 0h4.45v4.463h-4.45v-4.463zm8.901 0h4.45v4.463h-4.45v-4.463zm-26.72 8.943h4.45v4.462h-4.45v-4.462zm8.902 0h4.45v4.462h-4.45v-4.462zm8.918 0h4.45v4.462h-4.45v-4.462zm8.9 0h4.45v4.462h-4.45v-4.462zm8.902-8.943h4.467v4.463h-4.467v-4.463zm0 8.943h4.467v4.462h-4.467v-4.462zm-17.802 8.925h4.45v4.462h-4.45v-4.462zm8.901 0h4.45v4.462h-4.45v-4.462zm8.901 0h4.467v4.462h-4.467v-4.462zm8.918 0h4.45v4.462h-4.45v-4.462zm17.819 0h4.45v4.462h-4.45v-4.462zm0 8.925h4.45v4.48h-4.45v-4.48zM253.913 80.4h4.45v4.48h-4.45v-4.48zm8.9 0h4.468v4.48h-4.467v-4.48zm8.919 0h4.45v4.48h-4.45v-4.48zm8.9 0h4.451v4.48h-4.45v-4.48zm8.919 0H294v4.48h-4.45v-4.48zm8.9 0h4.451v4.48h-4.45v-4.48zm8.919 0h4.45v4.48h-4.45v-4.48zm8.9 0h4.451v4.48h-4.45v-4.48zm8.919-26.793h4.45v4.463h-4.45v-4.463zm8.9-17.867h4.451v4.462h-4.45V35.74zm0 8.942h4.451v4.463h-4.45V44.68zm0 17.868h4.451v4.462h-4.45v-4.462zm0-8.943h4.451v4.463h-4.45v-4.463zm8.902-17.867h4.467v4.462h-4.467V35.74zm-97.994-8.925h4.468v4.462h-4.468v-4.462zm8.918 0h4.45v4.462h-4.45v-4.462zm-8.918-8.942h4.468v4.479h-4.468v-4.48zm8.918 0h4.45v4.479h-4.45v-4.48zm8.901 8.942h4.468v4.462h-4.468v-4.462zm8.918 0h4.45v4.462h-4.45v-4.462zm8.901 0h4.45v4.462h-4.45v-4.462zm8.918 0h4.45v4.462h-4.45v-4.462zm8.901 0h4.45v4.462h-4.45v-4.462zm-17.818-8.942h4.45v4.479h-4.45v-4.48zm8.918 0h4.45v4.479h-4.45v-4.48zm0-8.926h4.45v4.463h-4.45V8.946zm8.9 8.926h4.451v4.479h-4.45v-4.48zm8.919 8.942h4.45v4.462h-4.45v-4.462zm8.9 0h4.451v4.462h-4.45v-4.462zm8.919 0h4.45v4.462h-4.45v-4.462zm8.9 0h4.451v4.462h-4.45v-4.462zm8.902 0h4.467v4.462h-4.467v-4.462zm0-8.942h4.467v4.479h-4.467v-4.48zm0 26.809h4.467v4.462h-4.467v-4.462zm8.918-8.942h4.45V40.2h-4.45V35.74zm0 8.942h4.45v4.462h-4.45v-4.462zm8.9-8.942h4.468V40.2h-4.467V35.74zm0 8.942h4.468v4.462h-4.467v-4.462zm8.919-8.942h4.45V40.2h-4.45V35.74zm8.9 0h4.451V40.2h-4.45V35.74zm8.919 0H392V40.2h-4.45V35.74zM369.73 44.68h4.45v4.462h-4.45v-4.462zm-8.918 8.925h4.467v4.463h-4.467v-4.463zM209.382 71.473h4.45v4.463h-4.45v-4.463zm8.9 8.926h4.45v4.48h-4.45v-4.48zm8.919 0h4.45v4.48h-4.45v-4.48zm-44.556-8.926h4.468v4.463h-4.468v-4.463zm0-17.867h4.468v4.463h-4.468v-4.463z"/>
</svg>
